<svg width="156" height="259" viewBox="0 0 156 259" fill="none" xmlns="http://www.w3.org/2000/svg">
<path d="M21.2014 142.182L21.2004 147.969C21.2014 151.164 18.6103 153.755 15.4149 153.754C14.9125 153.755 14.433 153.669 13.9685 153.55L13.9685 150.861C13.968 150.733 14.01 150.617 14.0419 150.498C14.4525 150.723 14.9154 150.861 15.4149 150.861C17.0106 150.862 18.3076 149.563 18.3076 147.969L18.3076 142.183C18.3076 140.587 17.0101 139.289 15.4144 139.29C13.8196 139.289 12.5221 140.587 12.5216 142.183L12.5226 144.241C11.3629 144.751 10.376 145.563 9.62884 146.567L9.62884 142.183C9.62935 138.987 12.2194 136.397 15.4153 136.396C18.6103 136.397 21.2009 138.987 21.2014 142.182ZM18.3082 154.589L18.3087 156.648C18.3082 158.243 17.0101 159.541 15.4154 159.541C13.8197 159.541 12.5222 158.243 12.5217 156.647L12.5222 150.861C12.5222 149.265 13.8192 147.968 15.4149 147.969C15.9134 147.969 16.3763 148.107 16.7874 148.33C16.8194 148.21 16.8613 148.097 16.8613 147.969L16.8619 145.28C16.3974 145.159 15.9179 145.075 15.415 145.076C12.2201 145.075 9.629 147.667 9.62897 150.862L9.62897 156.647C9.62948 159.843 12.2196 162.433 15.4154 162.434C18.6103 162.433 21.2009 159.843 21.2014 156.648L21.2014 152.263C20.4543 153.268 19.4669 154.079 18.3082 154.589Z" fill="white"/>
<path d="M21.2014 189.182L21.2004 194.969C21.2014 198.164 18.6103 200.755 15.4149 200.754C14.9125 200.755 14.433 200.669 13.9685 200.55L13.9685 197.861C13.968 197.733 14.01 197.617 14.0419 197.498C14.4525 197.723 14.9154 197.861 15.4149 197.861C17.0106 197.862 18.3076 196.563 18.3076 194.969L18.3076 189.183C18.3076 187.587 17.0101 186.289 15.4144 186.29C13.8196 186.289 12.5221 187.587 12.5216 189.183L12.5226 191.241C11.3629 191.751 10.376 192.563 9.62884 193.567L9.62884 189.183C9.62935 185.987 12.2194 183.397 15.4153 183.396C18.6103 183.397 21.2009 185.987 21.2014 189.182ZM18.3082 201.589L18.3087 203.648C18.3082 205.243 17.0101 206.541 15.4154 206.541C13.8197 206.541 12.5222 205.243 12.5217 203.647L12.5222 197.861C12.5222 196.265 13.8192 194.968 15.4149 194.969C15.9134 194.969 16.3763 195.107 16.7874 195.33C16.8194 195.21 16.8613 195.097 16.8613 194.969L16.8619 192.28C16.3974 192.159 15.9179 192.075 15.415 192.076C12.2201 192.075 9.629 194.667 9.62897 197.862L9.62897 203.647C9.62948 206.843 12.2196 209.433 15.4154 209.434C18.6103 209.433 21.2009 206.843 21.2014 203.648L21.2014 199.263C20.4543 200.268 19.4669 201.079 18.3082 201.589Z" fill="white"/>
<path d="M21.2014 166.182L21.2004 171.969C21.2014 175.164 18.6103 177.755 15.4149 177.754C14.9125 177.755 14.433 177.669 13.9685 177.55L13.9685 174.861C13.968 174.733 14.01 174.617 14.0419 174.498C14.4525 174.723 14.9154 174.861 15.4149 174.861C17.0106 174.862 18.3076 173.563 18.3076 171.969L18.3076 166.183C18.3076 164.587 17.0101 163.289 15.4144 163.29C13.8196 163.289 12.5221 164.587 12.5216 166.183L12.5226 168.241C11.3629 168.751 10.376 169.563 9.62884 170.567L9.62884 166.183C9.62935 162.987 12.2194 160.397 15.4153 160.396C18.6103 160.397 21.2009 162.987 21.2014 166.182ZM18.3082 178.589L18.3087 180.648C18.3082 182.243 17.0101 183.541 15.4154 183.541C13.8197 183.541 12.5222 182.243 12.5217 180.647L12.5222 174.861C12.5222 173.265 13.8192 171.968 15.4149 171.969C15.9134 171.969 16.3763 172.107 16.7874 172.33C16.8194 172.21 16.8613 172.097 16.8613 171.969L16.8619 169.28C16.3974 169.159 15.9179 169.075 15.415 169.076C12.2201 169.075 9.629 171.667 9.62897 174.862L9.62897 180.647C9.62948 183.843 12.2196 186.433 15.4154 186.434C18.6103 186.433 21.2009 183.843 21.2014 180.648L21.2014 176.263C20.4543 177.268 19.4669 178.079 18.3082 178.589Z" fill="white"/>
<path d="M21.2014 213.182L21.2004 218.969C21.2014 222.164 18.6103 224.755 15.4149 224.754C14.9125 224.755 14.433 224.669 13.9685 224.55L13.9685 221.861C13.968 221.733 14.01 221.617 14.0419 221.498C14.4525 221.723 14.9154 221.861 15.4149 221.861C17.0106 221.862 18.3076 220.563 18.3076 218.969L18.3076 213.183C18.3076 211.587 17.0101 210.289 15.4144 210.29C13.8196 210.289 12.5221 211.587 12.5216 213.183L12.5226 215.241C11.3629 215.751 10.376 216.563 9.62884 217.567L9.62884 213.183C9.62935 209.987 12.2194 207.397 15.4153 207.396C18.6103 207.397 21.2009 209.987 21.2014 213.182ZM18.3082 225.589L18.3087 227.648C18.3082 229.243 17.0101 230.541 15.4154 230.541C13.8197 230.541 12.5222 229.243 12.5217 227.647L12.5222 221.861C12.5222 220.265 13.8192 218.968 15.4149 218.969C15.9134 218.969 16.3763 219.107 16.7874 219.33C16.8194 219.21 16.8613 219.097 16.8613 218.969L16.8619 216.28C16.3974 216.159 15.9179 216.075 15.415 216.076C12.2201 216.075 9.629 218.667 9.62897 221.862L9.62897 227.647C9.62948 230.843 12.2196 233.433 15.4154 233.434C18.6103 233.433 21.2009 230.843 21.2014 227.648L21.2014 223.263C20.4543 224.268 19.4669 225.079 18.3082 225.589Z" fill="white"/>
<path d="M40.2014 116.182L40.2004 121.969C40.2014 125.164 37.6103 127.755 34.4149 127.754C33.9125 127.755 33.433 127.669 32.9685 127.55L32.9685 124.861C32.968 124.733 33.01 124.617 33.0419 124.498C33.4525 124.723 33.9154 124.861 34.4149 124.861C36.0106 124.862 37.3076 123.563 37.3076 121.969L37.3076 116.183C37.3076 114.587 36.0101 113.289 34.4144 113.29C32.8196 113.289 31.5221 114.587 31.5216 116.183L31.5226 118.241C30.3629 118.751 29.376 119.563 28.6288 120.567L28.6288 116.183C28.6294 112.987 31.2194 110.397 34.4153 110.396C37.6103 110.397 40.2009 112.987 40.2014 116.182ZM37.3082 128.589L37.3087 130.648C37.3082 132.243 36.0101 133.541 34.4154 133.541C32.8197 133.541 31.5222 132.243 31.5217 130.647L31.5222 124.861C31.5222 123.265 32.8192 121.968 34.4149 121.969C34.9134 121.969 35.3763 122.107 35.7874 122.33C35.8194 122.21 35.8613 122.097 35.8613 121.969L35.8619 119.28C35.3974 119.159 34.9179 119.075 34.415 119.076C31.2201 119.075 28.629 121.667 28.629 124.862L28.629 130.647C28.6295 133.843 31.2196 136.433 34.4154 136.434C37.6103 136.433 40.2009 133.843 40.2014 130.648L40.2014 126.263C39.4543 127.268 38.4669 128.079 37.3082 128.589Z" fill="#EF667B"/>
<path d="M40.2014 211.182L40.2004 216.969C40.2014 220.164 37.6103 222.755 34.4149 222.754C33.9125 222.755 33.433 222.669 32.9685 222.55L32.9685 219.861C32.968 219.733 33.01 219.617 33.0419 219.498C33.4525 219.723 33.9154 219.861 34.4149 219.861C36.0106 219.862 37.3076 218.563 37.3076 216.969L37.3076 211.183C37.3076 209.587 36.0101 208.289 34.4144 208.29C32.8196 208.289 31.5221 209.587 31.5216 211.183L31.5226 213.241C30.3629 213.751 29.376 214.563 28.6288 215.567L28.6288 211.183C28.6294 207.987 31.2194 205.397 34.4153 205.396C37.6103 205.397 40.2009 207.987 40.2014 211.182ZM37.3082 223.589L37.3087 225.648C37.3082 227.243 36.0101 228.541 34.4154 228.541C32.8197 228.541 31.5222 227.243 31.5217 225.647L31.5222 219.861C31.5222 218.265 32.8192 216.968 34.4149 216.969C34.9134 216.969 35.3763 217.107 35.7874 217.33C35.8194 217.21 35.8613 217.097 35.8613 216.969L35.8619 214.28C35.3974 214.159 34.9179 214.075 34.415 214.076C31.2201 214.075 28.629 216.667 28.629 219.862L28.629 225.647C28.6295 228.843 31.2196 231.433 34.4154 231.434C37.6103 231.433 40.2009 228.843 40.2014 225.648L40.2014 221.263C39.4543 222.268 38.4669 223.079 37.3082 223.589Z" fill="#EF667B"/>
<path d="M40.2014 188.182L40.2004 193.969C40.2014 197.164 37.6103 199.755 34.4149 199.754C33.9125 199.755 33.433 199.669 32.9685 199.55L32.9685 196.861C32.968 196.733 33.01 196.617 33.0419 196.498C33.4525 196.723 33.9154 196.861 34.4149 196.861C36.0106 196.862 37.3076 195.563 37.3076 193.969L37.3076 188.183C37.3076 186.587 36.0101 185.289 34.4144 185.29C32.8196 185.289 31.5221 186.587 31.5216 188.183L31.5226 190.241C30.3629 190.751 29.376 191.563 28.6288 192.567L28.6288 188.183C28.6294 184.987 31.2194 182.397 34.4153 182.396C37.6103 182.397 40.2009 184.987 40.2014 188.182ZM37.3082 200.589L37.3087 202.648C37.3082 204.243 36.0101 205.541 34.4154 205.541C32.8197 205.541 31.5222 204.243 31.5217 202.647L31.5222 196.861C31.5222 195.265 32.8192 193.968 34.4149 193.969C34.9134 193.969 35.3763 194.107 35.7874 194.33C35.8194 194.21 35.8613 194.097 35.8613 193.969L35.8619 191.28C35.3974 191.159 34.9179 191.075 34.415 191.076C31.2201 191.075 28.629 193.667 28.629 196.862L28.629 202.647C28.6295 205.843 31.2196 208.433 34.4154 208.434C37.6103 208.433 40.2009 205.843 40.2014 202.648L40.2014 198.263C39.4543 199.268 38.4669 200.079 37.3082 200.589Z" fill="#EF667B"/>
<path d="M40.2014 140.182L40.2004 145.969C40.2014 149.164 37.6103 151.755 34.4149 151.754C33.9125 151.755 33.433 151.669 32.9685 151.55L32.9685 148.861C32.968 148.733 33.01 148.617 33.0419 148.498C33.4525 148.723 33.9154 148.861 34.4149 148.861C36.0106 148.862 37.3076 147.563 37.3076 145.969L37.3076 140.183C37.3076 138.587 36.0101 137.289 34.4144 137.29C32.8196 137.289 31.5221 138.587 31.5216 140.183L31.5226 142.241C30.3629 142.751 29.376 143.563 28.6288 144.567L28.6288 140.183C28.6294 136.987 31.2194 134.397 34.4153 134.396C37.6103 134.397 40.2009 136.987 40.2014 140.182ZM37.3082 152.589L37.3087 154.648C37.3082 156.243 36.0101 157.541 34.4154 157.541C32.8197 157.541 31.5222 156.243 31.5217 154.647L31.5222 148.861C31.5222 147.265 32.8192 145.968 34.4149 145.969C34.9134 145.969 35.3763 146.107 35.7874 146.33C35.8194 146.21 35.8613 146.097 35.8613 145.969L35.8619 143.28C35.3974 143.159 34.9179 143.075 34.415 143.076C31.2201 143.075 28.629 145.667 28.629 148.862L28.629 154.647C28.6295 157.843 31.2196 160.433 34.4154 160.434C37.6103 160.433 40.2009 157.843 40.2014 154.648L40.2014 150.263C39.4543 151.268 38.4669 152.079 37.3082 152.589Z" fill="#EF667B"/>
<path d="M40.2014 164.182L40.2004 169.969C40.2014 173.164 37.6103 175.755 34.4149 175.754C33.9125 175.755 33.433 175.669 32.9685 175.55L32.9685 172.861C32.968 172.733 33.01 172.617 33.0419 172.498C33.4525 172.723 33.9154 172.861 34.4149 172.861C36.0106 172.862 37.3076 171.563 37.3076 169.969L37.3076 164.183C37.3076 162.587 36.0101 161.289 34.4144 161.29C32.8196 161.289 31.5221 162.587 31.5216 164.183L31.5226 166.241C30.3629 166.751 29.376 167.563 28.6288 168.567L28.6288 164.183C28.6294 160.987 31.2194 158.397 34.4153 158.396C37.6103 158.397 40.2009 160.987 40.2014 164.182ZM37.3082 176.589L37.3087 178.648C37.3082 180.243 36.0101 181.541 34.4154 181.541C32.8197 181.541 31.5222 180.243 31.5217 178.647L31.5222 172.861C31.5222 171.265 32.8192 169.968 34.4149 169.969C34.9134 169.969 35.3763 170.107 35.7874 170.33C35.8194 170.21 35.8613 170.097 35.8613 169.969L35.8619 167.28C35.3974 167.159 34.9179 167.075 34.415 167.076C31.2201 167.075 28.629 169.667 28.629 172.862L28.629 178.647C28.6295 181.843 31.2196 184.433 34.4154 184.434C37.6103 184.433 40.2009 181.843 40.2014 178.648L40.2014 174.263C39.4543 175.268 38.4669 176.079 37.3082 176.589Z" fill="#EF667B"/>
<path d="M93.2014 55.1822L93.2004 60.9687C93.2014 64.1641 90.6103 66.7552 87.4149 66.7542C86.9125 66.7552 86.433 66.6693 85.9685 66.5504L85.9685 63.8614C85.968 63.733 86.01 63.6172 86.0419 63.4983C86.4525 63.7231 86.9154 63.8614 87.4149 63.8614C89.0106 63.8619 90.3076 62.5629 90.3076 60.9687L90.3076 55.1832C90.3076 53.587 89.0101 52.2894 87.4144 52.2899C85.8196 52.2894 84.5221 53.587 84.5216 55.1827L84.5226 57.2414C83.3629 57.7508 82.376 58.5629 81.6288 59.5668L81.6288 55.1827C81.6294 51.9868 84.2194 49.3967 87.4153 49.3962C90.6103 49.3967 93.2009 51.9873 93.2014 55.1822ZM90.3082 67.5888L90.3087 69.648C90.3082 71.2427 89.0101 72.5407 87.4154 72.5412C85.8197 72.5407 84.5222 71.2432 84.5217 69.6475L84.5222 63.8615C84.5222 62.2653 85.8192 60.9682 87.4149 60.9687C87.9134 60.9687 88.3763 61.1071 88.7874 61.3303C88.8194 61.2104 88.8613 61.0966 88.8613 60.9687L88.8619 58.2802C88.3974 58.1594 87.9179 58.0754 87.415 58.076C84.2201 58.0755 81.629 60.6665 81.629 63.862L81.629 69.6474C81.6295 72.8433 84.2196 75.4334 87.4154 75.4339C90.6103 75.4334 93.2009 72.8429 93.2014 69.6479L93.2014 65.2628C92.4543 66.2677 91.4669 67.0793 90.3082 67.5888Z" fill="#007CFA"/>
<path d="M93.2014 79.1822L93.2004 84.9687C93.2014 88.1641 90.6103 90.7552 87.4149 90.7542C86.9125 90.7552 86.433 90.6693 85.9685 90.5504L85.9685 87.8614C85.968 87.733 86.01 87.6172 86.0419 87.4983C86.4525 87.7231 86.9154 87.8614 87.4149 87.8614C89.0106 87.8619 90.3076 86.5629 90.3076 84.9687L90.3076 79.1832C90.3076 77.587 89.0101 76.2894 87.4144 76.2899C85.8196 76.2894 84.5221 77.587 84.5216 79.1827L84.5226 81.2414C83.3629 81.7508 82.376 82.5629 81.6288 83.5668L81.6288 79.1827C81.6294 75.9868 84.2194 73.3967 87.4153 73.3962C90.6103 73.3967 93.2009 75.9873 93.2014 79.1822ZM90.3082 91.5888L90.3087 93.648C90.3082 95.2427 89.0101 96.5407 87.4154 96.5412C85.8197 96.5407 84.5222 95.2432 84.5217 93.6475L84.5222 87.8615C84.5222 86.2653 85.8192 84.9682 87.4149 84.9687C87.9134 84.9687 88.3763 85.1071 88.7874 85.3303C88.8194 85.2104 88.8613 85.0966 88.8613 84.9687L88.8619 82.2802C88.3974 82.1594 87.9179 82.0754 87.415 82.076C84.2201 82.0755 81.629 84.6665 81.629 87.862L81.629 93.6474C81.6295 96.8433 84.2196 99.4334 87.4154 99.4339C90.6103 99.4334 93.2009 96.8429 93.2014 93.6479L93.2014 89.2628C92.4543 90.2677 91.4669 91.0793 90.3082 91.5888Z" fill="#007CFA"/>
<path d="M93.2014 8.18222L93.2004 13.9687C93.2014 17.1641 90.6103 19.7552 87.4149 19.7542C86.9125 19.7552 86.433 19.6693 85.9685 19.5504L85.9685 16.8614C85.968 16.733 86.01 16.6172 86.0419 16.4983C86.4525 16.7231 86.9154 16.8614 87.4149 16.8614C89.0106 16.8619 90.3076 15.5629 90.3076 13.9687L90.3076 8.18318C90.3076 6.58696 89.0101 5.28942 87.4144 5.28993C85.8196 5.28945 84.5221 6.58696 84.5216 8.18267L84.5226 10.2414C83.3629 10.7508 82.376 11.5629 81.6288 12.5668L81.6288 8.1827C81.6294 4.98681 84.2194 2.39674 87.4153 2.39622C90.6103 2.39674 93.2009 4.98732 93.2014 8.18222ZM90.3082 20.5888L90.3087 22.648C90.3082 24.2427 89.0101 25.5407 87.4154 25.5412C85.8197 25.5407 84.5222 24.2432 84.5217 22.6475L84.5222 16.8615C84.5222 15.2653 85.8192 13.9682 87.4149 13.9687C87.9134 13.9687 88.3763 14.1071 88.7874 14.3303C88.8194 14.2104 88.8613 14.0966 88.8613 13.9687L88.8619 11.2802C88.3974 11.1594 87.9179 11.0754 87.415 11.076C84.2201 11.0755 81.629 13.6665 81.629 16.862L81.629 22.6474C81.6295 25.8433 84.2196 28.4334 87.4154 28.4339C90.6103 28.4334 93.2009 25.8429 93.2014 22.6479L93.2014 18.2628C92.4543 19.2677 91.4669 20.0793 90.3082 20.5888Z" fill="#007CFA"/>
<path d="M93.2014 150.182L93.2004 155.969C93.2014 159.164 90.6103 161.755 87.4149 161.754C86.9125 161.755 86.433 161.669 85.9685 161.55L85.9685 158.861C85.968 158.733 86.01 158.617 86.0419 158.498C86.4525 158.723 86.9154 158.861 87.4149 158.861C89.0106 158.862 90.3076 157.563 90.3076 155.969L90.3076 150.183C90.3076 148.587 89.0101 147.289 87.4144 147.29C85.8196 147.289 84.5221 148.587 84.5216 150.183L84.5226 152.241C83.3629 152.751 82.376 153.563 81.6288 154.567L81.6288 150.183C81.6294 146.987 84.2194 144.397 87.4153 144.396C90.6103 144.397 93.2009 146.987 93.2014 150.182ZM90.3082 162.589L90.3087 164.648C90.3082 166.243 89.0101 167.541 87.4154 167.541C85.8197 167.541 84.5222 166.243 84.5217 164.647L84.5222 158.861C84.5222 157.265 85.8192 155.968 87.4149 155.969C87.9134 155.969 88.3763 156.107 88.7874 156.33C88.8194 156.21 88.8613 156.097 88.8613 155.969L88.8619 153.28C88.3974 153.159 87.9179 153.075 87.415 153.076C84.2201 153.075 81.629 155.667 81.629 158.862L81.629 164.647C81.6295 167.843 84.2196 170.433 87.4154 170.434C90.6103 170.433 93.2009 167.843 93.2014 164.648L93.2014 160.263C92.4543 161.268 91.4669 162.079 90.3082 162.589Z" fill="#007CFA"/>
<path d="M93.2014 197.182L93.2004 202.969C93.2014 206.164 90.6103 208.755 87.4149 208.754C86.9125 208.755 86.433 208.669 85.9685 208.55L85.9685 205.861C85.968 205.733 86.01 205.617 86.0419 205.498C86.4525 205.723 86.9154 205.861 87.4149 205.861C89.0106 205.862 90.3076 204.563 90.3076 202.969L90.3076 197.183C90.3076 195.587 89.0101 194.289 87.4144 194.29C85.8196 194.289 84.5221 195.587 84.5216 197.183L84.5226 199.241C83.3629 199.751 82.376 200.563 81.6288 201.567L81.6288 197.183C81.6294 193.987 84.2194 191.397 87.4153 191.396C90.6103 191.397 93.2009 193.987 93.2014 197.182ZM90.3082 209.589L90.3087 211.648C90.3082 213.243 89.0101 214.541 87.4154 214.541C85.8197 214.541 84.5222 213.243 84.5217 211.647L84.5222 205.861C84.5222 204.265 85.8192 202.968 87.4149 202.969C87.9134 202.969 88.3763 203.107 88.7874 203.33C88.8194 203.21 88.8613 203.097 88.8613 202.969L88.8619 200.28C88.3974 200.159 87.9179 200.075 87.415 200.076C84.2201 200.075 81.629 202.667 81.629 205.862L81.629 211.647C81.6295 214.843 84.2196 217.433 87.4154 217.434C90.6103 217.433 93.2009 214.843 93.2014 211.648L93.2014 207.263C92.4543 208.268 91.4669 209.079 90.3082 209.589Z" fill="#007CFA"/>
<path d="M93.2014 32.1822L93.2004 37.9687C93.2014 41.1641 90.6103 43.7552 87.4149 43.7542C86.9125 43.7552 86.433 43.6693 85.9685 43.5504L85.9685 40.8614C85.968 40.733 86.01 40.6172 86.0419 40.4983C86.4525 40.7231 86.9154 40.8614 87.4149 40.8614C89.0106 40.8619 90.3076 39.5629 90.3076 37.9687L90.3076 32.1832C90.3076 30.587 89.0101 29.2894 87.4144 29.2899C85.8196 29.2894 84.5221 30.587 84.5216 32.1827L84.5226 34.2414C83.3629 34.7508 82.376 35.5629 81.6288 36.5668L81.6288 32.1827C81.6294 28.9868 84.2194 26.3967 87.4153 26.3962C90.6103 26.3967 93.2009 28.9873 93.2014 32.1822ZM90.3082 44.5888L90.3087 46.648C90.3082 48.2427 89.0101 49.5407 87.4154 49.5412C85.8197 49.5407 84.5222 48.2432 84.5217 46.6475L84.5222 40.8615C84.5222 39.2653 85.8192 37.9682 87.4149 37.9687C87.9134 37.9687 88.3763 38.1071 88.7874 38.3303C88.8194 38.2104 88.8613 38.0966 88.8613 37.9687L88.8619 35.2802C88.3974 35.1594 87.9179 35.0754 87.415 35.076C84.2201 35.0755 81.629 37.6665 81.629 40.862L81.629 46.6474C81.6295 49.8433 84.2196 52.4334 87.4154 52.4339C90.6103 52.4334 93.2009 49.8429 93.2014 46.6479L93.2014 42.2628C92.4543 43.2677 91.4669 44.0793 90.3082 44.5888Z" fill="#007CFA"/>
<path d="M93.2014 174.182L93.2004 179.969C93.2014 183.164 90.6103 185.755 87.4149 185.754C86.9125 185.755 86.433 185.669 85.9685 185.55L85.9685 182.861C85.968 182.733 86.01 182.617 86.0419 182.498C86.4525 182.723 86.9154 182.861 87.4149 182.861C89.0106 182.862 90.3076 181.563 90.3076 179.969L90.3076 174.183C90.3076 172.587 89.0101 171.289 87.4144 171.29C85.8196 171.289 84.5221 172.587 84.5216 174.183L84.5226 176.241C83.3629 176.751 82.376 177.563 81.6288 178.567L81.6288 174.183C81.6294 170.987 84.2194 168.397 87.4153 168.396C90.6103 168.397 93.2009 170.987 93.2014 174.182ZM90.3082 186.589L90.3087 188.648C90.3082 190.243 89.0101 191.541 87.4154 191.541C85.8197 191.541 84.5222 190.243 84.5217 188.647L84.5222 182.861C84.5222 181.265 85.8192 179.968 87.4149 179.969C87.9134 179.969 88.3763 180.107 88.7874 180.33C88.8194 180.21 88.8613 180.097 88.8613 179.969L88.8619 177.28C88.3974 177.159 87.9179 177.075 87.415 177.076C84.2201 177.075 81.629 179.667 81.629 182.862L81.629 188.647C81.6295 191.843 84.2196 194.433 87.4154 194.434C90.6103 194.433 93.2009 191.843 93.2014 188.648L93.2014 184.263C92.4543 185.268 91.4669 186.079 90.3082 186.589Z" fill="#007CFA"/>
<path d="M93.2014 126.182L93.2004 131.969C93.2014 135.164 90.6103 137.755 87.4149 137.754C86.9125 137.755 86.433 137.669 85.9685 137.55L85.9685 134.861C85.968 134.733 86.01 134.617 86.0419 134.498C86.4525 134.723 86.9154 134.861 87.4149 134.861C89.0106 134.862 90.3076 133.563 90.3076 131.969L90.3076 126.183C90.3076 124.587 89.0101 123.289 87.4144 123.29C85.8196 123.289 84.5221 124.587 84.5216 126.183L84.5226 128.241C83.3629 128.751 82.376 129.563 81.6288 130.567L81.6288 126.183C81.6294 122.987 84.2194 120.397 87.4153 120.396C90.6103 120.397 93.2009 122.987 93.2014 126.182ZM90.3082 138.589L90.3087 140.648C90.3082 142.243 89.0101 143.541 87.4154 143.541C85.8197 143.541 84.5222 142.243 84.5217 140.647L84.5222 134.861C84.5222 133.265 85.8192 131.968 87.4149 131.969C87.9134 131.969 88.3763 132.107 88.7874 132.33C88.8194 132.21 88.8613 132.097 88.8613 131.969L88.8619 129.28C88.3974 129.159 87.9179 129.075 87.415 129.076C84.2201 129.075 81.629 131.667 81.629 134.862L81.629 140.647C81.6295 143.843 84.2196 146.433 87.4154 146.434C90.6103 146.433 93.2009 143.843 93.2014 140.648L93.2014 136.263C92.4543 137.268 91.4669 138.079 90.3082 138.589Z" fill="#007CFA"/>
<path d="M93.2014 102.182L93.2004 107.969C93.2014 111.164 90.6103 113.755 87.4149 113.754C86.9125 113.755 86.433 113.669 85.9685 113.55L85.9685 110.861C85.968 110.733 86.01 110.617 86.0419 110.498C86.4525 110.723 86.9154 110.861 87.4149 110.861C89.0106 110.862 90.3076 109.563 90.3076 107.969L90.3076 102.183C90.3076 100.587 89.0101 99.2894 87.4144 99.2899C85.8196 99.2894 84.5221 100.587 84.5216 102.183L84.5226 104.241C83.3629 104.751 82.376 105.563 81.6288 106.567L81.6288 102.183C81.6294 98.9868 84.2194 96.3967 87.4153 96.3962C90.6103 96.3967 93.2009 98.9873 93.2014 102.182ZM90.3082 114.589L90.3087 116.648C90.3082 118.243 89.0101 119.541 87.4154 119.541C85.8197 119.541 84.5222 118.243 84.5217 116.647L84.5222 110.861C84.5222 109.265 85.8192 107.968 87.4149 107.969C87.9134 107.969 88.3763 108.107 88.7874 108.33C88.8194 108.21 88.8613 108.097 88.8613 107.969L88.8619 105.28C88.3974 105.159 87.9179 105.075 87.415 105.076C84.2201 105.075 81.629 107.667 81.629 110.862L81.629 116.647C81.6295 119.843 84.2196 122.433 87.4154 122.434C90.6103 122.433 93.2009 119.843 93.2014 116.648L93.2014 112.263C92.4543 113.268 91.4669 114.079 90.3082 114.589Z" fill="#007CFA"/>
<path d="M93.2014 221.182L93.2004 226.969C93.2014 230.164 90.6103 232.755 87.4149 232.754C86.9125 232.755 86.433 232.669 85.9685 232.55L85.9685 229.861C85.968 229.733 86.01 229.617 86.0419 229.498C86.4525 229.723 86.9154 229.861 87.4149 229.861C89.0106 229.862 90.3076 228.563 90.3076 226.969L90.3076 221.183C90.3076 219.587 89.0101 218.289 87.4144 218.29C85.8196 218.289 84.5221 219.587 84.5216 221.183L84.5226 223.241C83.3629 223.751 82.376 224.563 81.6288 225.567L81.6288 221.183C81.6294 217.987 84.2194 215.397 87.4153 215.396C90.6103 215.397 93.2009 217.987 93.2014 221.182ZM90.3082 233.589L90.3087 235.648C90.3082 237.243 89.0101 238.541 87.4154 238.541C85.8197 238.541 84.5222 237.243 84.5217 235.647L84.5222 229.861C84.5222 228.265 85.8192 226.968 87.4149 226.969C87.9134 226.969 88.3763 227.107 88.7874 227.33C88.8194 227.21 88.8613 227.097 88.8613 226.969L88.8619 224.28C88.3974 224.159 87.9179 224.075 87.415 224.076C84.2201 224.075 81.629 226.667 81.629 229.862L81.629 235.647C81.6295 238.843 84.2196 241.433 87.4154 241.434C90.6103 241.433 93.2009 238.843 93.2014 235.648L93.2014 231.263C92.4543 232.268 91.4669 233.079 90.3082 233.589Z" fill="#007CFA"/>
<path d="M75.2014 203.182L75.2004 208.969C75.2014 212.164 72.6103 214.755 69.4149 214.754C68.9125 214.755 68.433 214.669 67.9685 214.55L67.9685 211.861C67.968 211.733 68.01 211.617 68.0419 211.498C68.4525 211.723 68.9154 211.861 69.4149 211.861C71.0106 211.862 72.3076 210.563 72.3076 208.969L72.3076 203.183C72.3076 201.587 71.0101 200.289 69.4144 200.29C67.8196 200.289 66.5221 201.587 66.5216 203.183L66.5226 205.241C65.3629 205.751 64.376 206.563 63.6288 207.567L63.6288 203.183C63.6294 199.987 66.2194 197.397 69.4153 197.396C72.6103 197.397 75.2009 199.987 75.2014 203.182ZM72.3082 215.589L72.3087 217.648C72.3082 219.243 71.0101 220.541 69.4154 220.541C67.8197 220.541 66.5222 219.243 66.5217 217.647L66.5222 211.861C66.5222 210.265 67.8192 208.968 69.4149 208.969C69.9134 208.969 70.3763 209.107 70.7874 209.33C70.8194 209.21 70.8613 209.097 70.8613 208.969L70.8619 206.28C70.3974 206.159 69.9179 206.075 69.415 206.076C66.2201 206.075 63.629 208.667 63.629 211.862L63.629 217.647C63.6295 220.843 66.2196 223.433 69.4154 223.434C72.6103 223.433 75.2009 220.843 75.2014 217.648L75.2014 213.263C74.4543 214.268 73.4669 215.079 72.3082 215.589Z" fill="white"/>
<path d="M75.2014 180.182L75.2004 185.969C75.2014 189.164 72.6103 191.755 69.4149 191.754C68.9125 191.755 68.433 191.669 67.9685 191.55L67.9685 188.861C67.968 188.733 68.01 188.617 68.0419 188.498C68.4525 188.723 68.9154 188.861 69.4149 188.861C71.0106 188.862 72.3076 187.563 72.3076 185.969L72.3076 180.183C72.3076 178.587 71.0101 177.289 69.4144 177.29C67.8196 177.289 66.5221 178.587 66.5216 180.183L66.5226 182.241C65.3629 182.751 64.376 183.563 63.6288 184.567L63.6288 180.183C63.6294 176.987 66.2194 174.397 69.4153 174.396C72.6103 174.397 75.2009 176.987 75.2014 180.182ZM72.3082 192.589L72.3087 194.648C72.3082 196.243 71.0101 197.541 69.4154 197.541C67.8197 197.541 66.5222 196.243 66.5217 194.647L66.5222 188.861C66.5222 187.265 67.8192 185.968 69.4149 185.969C69.9134 185.969 70.3763 186.107 70.7874 186.33C70.8194 186.21 70.8613 186.097 70.8613 185.969L70.8619 183.28C70.3974 183.159 69.9179 183.075 69.415 183.076C66.2201 183.075 63.629 185.667 63.629 188.862L63.629 194.647C63.6295 197.843 66.2196 200.433 69.4154 200.434C72.6103 200.433 75.2009 197.843 75.2014 194.648L75.2014 190.263C74.4543 191.268 73.4669 192.079 72.3082 192.589Z" fill="white"/>
<path d="M75.2014 227.182L75.2004 232.969C75.2014 236.164 72.6103 238.755 69.4149 238.754C68.9125 238.755 68.433 238.669 67.9685 238.55L67.9685 235.861C67.968 235.733 68.01 235.617 68.0419 235.498C68.4525 235.723 68.9154 235.861 69.4149 235.861C71.0106 235.862 72.3076 234.563 72.3076 232.969L72.3076 227.183C72.3076 225.587 71.0101 224.289 69.4144 224.29C67.8196 224.289 66.5221 225.587 66.5216 227.183L66.5226 229.241C65.3629 229.751 64.376 230.563 63.6288 231.567L63.6288 227.183C63.6294 223.987 66.2194 221.397 69.4153 221.396C72.6103 221.397 75.2009 223.987 75.2014 227.182ZM72.3082 239.589L72.3087 241.648C72.3082 243.243 71.0101 244.541 69.4154 244.541C67.8197 244.541 66.5222 243.243 66.5217 241.647L66.5222 235.861C66.5222 234.265 67.8192 232.968 69.4149 232.969C69.9134 232.969 70.3763 233.107 70.7874 233.33C70.8194 233.21 70.8613 233.097 70.8613 232.969L70.8619 230.28C70.3974 230.159 69.9179 230.075 69.415 230.076C66.2201 230.075 63.629 232.667 63.629 235.862L63.629 241.647C63.6295 244.843 66.2196 247.433 69.4154 247.434C72.6103 247.433 75.2009 244.843 75.2014 241.648L75.2014 237.263C74.4543 238.268 73.4669 239.079 72.3082 239.589Z" fill="white"/>
<path d="M129.201 70.1822L129.2 75.9687C129.201 79.1641 126.61 81.7552 123.415 81.7542C122.912 81.7552 122.433 81.6693 121.969 81.5504L121.969 78.8614C121.968 78.733 122.01 78.6172 122.042 78.4983C122.452 78.7231 122.915 78.8614 123.415 78.8614C125.011 78.8619 126.308 77.5629 126.308 75.9687L126.308 70.1832C126.308 68.587 125.01 67.2894 123.414 67.2899C121.82 67.2894 120.522 68.587 120.522 70.1827L120.523 72.2414C119.363 72.7508 118.376 73.5629 117.629 74.5668L117.629 70.1827C117.629 66.9868 120.219 64.3967 123.415 64.3962C126.61 64.3967 129.201 66.9873 129.201 70.1822ZM126.308 82.5888L126.309 84.648C126.308 86.2427 125.01 87.5407 123.415 87.5412C121.82 87.5407 120.522 86.2432 120.522 84.6475L120.522 78.8615C120.522 77.2653 121.819 75.9682 123.415 75.9687C123.913 75.9687 124.376 76.1071 124.787 76.3303C124.819 76.2104 124.861 76.0966 124.861 75.9687L124.862 73.2802C124.397 73.1594 123.918 73.0754 123.415 73.076C120.22 73.0755 117.629 75.6665 117.629 78.862L117.629 84.6474C117.629 87.8433 120.22 90.4334 123.415 90.4339C126.61 90.4334 129.201 87.8429 129.201 84.6479L129.201 80.2628C128.454 81.2677 127.467 82.0793 126.308 82.5888Z" fill="white"/>
<path d="M129.201 165.182L129.2 170.969C129.201 174.164 126.61 176.755 123.415 176.754C122.912 176.755 122.433 176.669 121.969 176.55L121.969 173.861C121.968 173.733 122.01 173.617 122.042 173.498C122.452 173.723 122.915 173.861 123.415 173.861C125.011 173.862 126.308 172.563 126.308 170.969L126.308 165.183C126.308 163.587 125.01 162.289 123.414 162.29C121.82 162.289 120.522 163.587 120.522 165.183L120.523 167.241C119.363 167.751 118.376 168.563 117.629 169.567L117.629 165.183C117.629 161.987 120.219 159.397 123.415 159.396C126.61 159.397 129.201 161.987 129.201 165.182ZM126.308 177.589L126.309 179.648C126.308 181.243 125.01 182.541 123.415 182.541C121.82 182.541 120.522 181.243 120.522 179.647L120.522 173.861C120.522 172.265 121.819 170.968 123.415 170.969C123.913 170.969 124.376 171.107 124.787 171.33C124.819 171.21 124.861 171.097 124.861 170.969L124.862 168.28C124.397 168.159 123.918 168.075 123.415 168.076C120.22 168.075 117.629 170.667 117.629 173.862L117.629 179.647C117.629 182.843 120.22 185.433 123.415 185.434C126.61 185.433 129.201 182.843 129.201 179.648L129.201 175.263C128.454 176.268 127.467 177.079 126.308 177.589Z" fill="white"/>
<path d="M129.201 117.182L129.2 122.969C129.201 126.164 126.61 128.755 123.415 128.754C122.912 128.755 122.433 128.669 121.969 128.55L121.969 125.861C121.968 125.733 122.01 125.617 122.042 125.498C122.452 125.723 122.915 125.861 123.415 125.861C125.011 125.862 126.308 124.563 126.308 122.969L126.308 117.183C126.308 115.587 125.01 114.289 123.414 114.29C121.82 114.289 120.522 115.587 120.522 117.183L120.523 119.241C119.363 119.751 118.376 120.563 117.629 121.567L117.629 117.183C117.629 113.987 120.219 111.397 123.415 111.396C126.61 111.397 129.201 113.987 129.201 117.182ZM126.308 129.589L126.309 131.648C126.308 133.243 125.01 134.541 123.415 134.541C121.82 134.541 120.522 133.243 120.522 131.647L120.522 125.861C120.522 124.265 121.819 122.968 123.415 122.969C123.913 122.969 124.376 123.107 124.787 123.33C124.819 123.21 124.861 123.097 124.861 122.969L124.862 120.28C124.397 120.159 123.918 120.075 123.415 120.076C120.22 120.075 117.629 122.667 117.629 125.862L117.629 131.647C117.629 134.843 120.22 137.433 123.415 137.434C126.61 137.433 129.201 134.843 129.201 131.648L129.201 127.263C128.454 128.268 127.467 129.079 126.308 129.589Z" fill="white"/>
<path d="M129.201 212.182L129.2 217.969C129.201 221.164 126.61 223.755 123.415 223.754C122.912 223.755 122.433 223.669 121.969 223.55L121.969 220.861C121.968 220.733 122.01 220.617 122.042 220.498C122.452 220.723 122.915 220.861 123.415 220.861C125.011 220.862 126.308 219.563 126.308 217.969L126.308 212.183C126.308 210.587 125.01 209.289 123.414 209.29C121.82 209.289 120.522 210.587 120.522 212.183L120.523 214.241C119.363 214.751 118.376 215.563 117.629 216.567L117.629 212.183C117.629 208.987 120.219 206.397 123.415 206.396C126.61 206.397 129.201 208.987 129.201 212.182ZM126.308 224.589L126.309 226.648C126.308 228.243 125.01 229.541 123.415 229.541C121.82 229.541 120.522 228.243 120.522 226.647L120.522 220.861C120.522 219.265 121.819 217.968 123.415 217.969C123.913 217.969 124.376 218.107 124.787 218.33C124.819 218.21 124.861 218.097 124.861 217.969L124.862 215.28C124.397 215.159 123.918 215.075 123.415 215.076C120.22 215.075 117.629 217.667 117.629 220.862L117.629 226.647C117.629 229.843 120.22 232.433 123.415 232.434C126.61 232.433 129.201 229.843 129.201 226.648L129.201 222.263C128.454 223.268 127.467 224.079 126.308 224.589Z" fill="white"/>
<path d="M129.201 94.1822L129.2 99.9687C129.201 103.164 126.61 105.755 123.415 105.754C122.912 105.755 122.433 105.669 121.969 105.55L121.969 102.861C121.968 102.733 122.01 102.617 122.042 102.498C122.452 102.723 122.915 102.861 123.415 102.861C125.011 102.862 126.308 101.563 126.308 99.9687L126.308 94.1832C126.308 92.587 125.01 91.2894 123.414 91.2899C121.82 91.2894 120.522 92.587 120.522 94.1827L120.523 96.2414C119.363 96.7508 118.376 97.5629 117.629 98.5668L117.629 94.1827C117.629 90.9868 120.219 88.3967 123.415 88.3962C126.61 88.3967 129.201 90.9873 129.201 94.1822ZM126.308 106.589L126.309 108.648C126.308 110.243 125.01 111.541 123.415 111.541C121.82 111.541 120.522 110.243 120.522 108.647L120.522 102.861C120.522 101.265 121.819 99.9682 123.415 99.9687C123.913 99.9687 124.376 100.107 124.787 100.33C124.819 100.21 124.861 100.097 124.861 99.9687L124.862 97.2802C124.397 97.1594 123.918 97.0754 123.415 97.076C120.22 97.0755 117.629 99.6665 117.629 102.862L117.629 108.647C117.629 111.843 120.22 114.433 123.415 114.434C126.61 114.433 129.201 111.843 129.201 108.648L129.201 104.263C128.454 105.268 127.467 106.079 126.308 106.589Z" fill="white"/>
<path d="M129.201 189.182L129.2 194.969C129.201 198.164 126.61 200.755 123.415 200.754C122.912 200.755 122.433 200.669 121.969 200.55L121.969 197.861C121.968 197.733 122.01 197.617 122.042 197.498C122.452 197.723 122.915 197.861 123.415 197.861C125.011 197.862 126.308 196.563 126.308 194.969L126.308 189.183C126.308 187.587 125.01 186.289 123.414 186.29C121.82 186.289 120.522 187.587 120.522 189.183L120.523 191.241C119.363 191.751 118.376 192.563 117.629 193.567L117.629 189.183C117.629 185.987 120.219 183.397 123.415 183.396C126.61 183.397 129.201 185.987 129.201 189.182ZM126.308 201.589L126.309 203.648C126.308 205.243 125.01 206.541 123.415 206.541C121.82 206.541 120.522 205.243 120.522 203.647L120.522 197.861C120.522 196.265 121.819 194.968 123.415 194.969C123.913 194.969 124.376 195.107 124.787 195.33C124.819 195.21 124.861 195.097 124.861 194.969L124.862 192.28C124.397 192.159 123.918 192.075 123.415 192.076C120.22 192.075 117.629 194.667 117.629 197.862L117.629 203.647C117.629 206.843 120.22 209.433 123.415 209.434C126.61 209.433 129.201 206.843 129.201 203.648L129.201 199.263C128.454 200.268 127.467 201.079 126.308 201.589Z" fill="white"/>
<path d="M129.201 141.182L129.2 146.969C129.201 150.164 126.61 152.755 123.415 152.754C122.912 152.755 122.433 152.669 121.969 152.55L121.969 149.861C121.968 149.733 122.01 149.617 122.042 149.498C122.452 149.723 122.915 149.861 123.415 149.861C125.011 149.862 126.308 148.563 126.308 146.969L126.308 141.183C126.308 139.587 125.01 138.289 123.414 138.29C121.82 138.289 120.522 139.587 120.522 141.183L120.523 143.241C119.363 143.751 118.376 144.563 117.629 145.567L117.629 141.183C117.629 137.987 120.219 135.397 123.415 135.396C126.61 135.397 129.201 137.987 129.201 141.182ZM126.308 153.589L126.309 155.648C126.308 157.243 125.01 158.541 123.415 158.541C121.82 158.541 120.522 157.243 120.522 155.647L120.522 149.861C120.522 148.265 121.819 146.968 123.415 146.969C123.913 146.969 124.376 147.107 124.787 147.33C124.819 147.21 124.861 147.097 124.861 146.969L124.862 144.28C124.397 144.159 123.918 144.075 123.415 144.076C120.22 144.075 117.629 146.667 117.629 149.862L117.629 155.647C117.629 158.843 120.22 161.433 123.415 161.434C126.61 161.433 129.201 158.843 129.201 155.648L129.201 151.263C128.454 152.268 127.467 153.079 126.308 153.589Z" fill="white"/>
<path d="M129.201 236.182L129.2 241.969C129.201 245.164 126.61 247.755 123.415 247.754C122.912 247.755 122.433 247.669 121.969 247.55L121.969 244.861C121.968 244.733 122.01 244.617 122.042 244.498C122.452 244.723 122.915 244.861 123.415 244.861C125.011 244.862 126.308 243.563 126.308 241.969L126.308 236.183C126.308 234.587 125.01 233.289 123.414 233.29C121.82 233.289 120.522 234.587 120.522 236.183L120.523 238.241C119.363 238.751 118.376 239.563 117.629 240.567L117.629 236.183C117.629 232.987 120.219 230.397 123.415 230.396C126.61 230.397 129.201 232.987 129.201 236.182ZM126.308 248.589L126.309 250.648C126.308 252.243 125.01 253.541 123.415 253.541C121.82 253.541 120.522 252.243 120.522 250.647L120.522 244.861C120.522 243.265 121.819 241.968 123.415 241.969C123.913 241.969 124.376 242.107 124.787 242.33C124.819 242.21 124.861 242.097 124.861 241.969L124.862 239.28C124.397 239.159 123.918 239.075 123.415 239.076C120.22 239.075 117.629 241.667 117.629 244.862L117.629 250.647C117.629 253.843 120.22 256.433 123.415 256.434C126.61 256.433 129.201 253.843 129.201 250.648L129.201 246.263C128.454 247.268 127.467 248.079 126.308 248.589Z" fill="white"/>
<path d="M146.201 184.182L146.2 189.969C146.201 193.164 143.61 195.755 140.415 195.754C139.912 195.755 139.433 195.669 138.969 195.55L138.969 192.861C138.968 192.733 139.01 192.617 139.042 192.498C139.452 192.723 139.915 192.861 140.415 192.861C142.011 192.862 143.308 191.563 143.308 189.969L143.308 184.183C143.308 182.587 142.01 181.289 140.414 181.29C138.82 181.289 137.522 182.587 137.522 184.183L137.523 186.241C136.363 186.751 135.376 187.563 134.629 188.567L134.629 184.183C134.629 180.987 137.219 178.397 140.415 178.396C143.61 178.397 146.201 180.987 146.201 184.182ZM143.308 196.589L143.309 198.648C143.308 200.243 142.01 201.541 140.415 201.541C138.82 201.541 137.522 200.243 137.522 198.647L137.522 192.861C137.522 191.265 138.819 189.968 140.415 189.969C140.913 189.969 141.376 190.107 141.787 190.33C141.819 190.21 141.861 190.097 141.861 189.969L141.862 187.28C141.397 187.159 140.918 187.075 140.415 187.076C137.22 187.075 134.629 189.667 134.629 192.862L134.629 198.647C134.629 201.843 137.22 204.433 140.415 204.434C143.61 204.433 146.201 201.843 146.201 198.648L146.201 194.263C145.454 195.268 144.467 196.079 143.308 196.589Z" fill="white"/>
<path d="M146.201 159.182L146.2 164.969C146.201 168.164 143.61 170.755 140.415 170.754C139.912 170.755 139.433 170.669 138.969 170.55L138.969 167.861C138.968 167.733 139.01 167.617 139.042 167.498C139.452 167.723 139.915 167.861 140.415 167.861C142.011 167.862 143.308 166.563 143.308 164.969L143.308 159.183C143.308 157.587 142.01 156.289 140.414 156.29C138.82 156.289 137.522 157.587 137.522 159.183L137.523 161.241C136.363 161.751 135.376 162.563 134.629 163.567L134.629 159.183C134.629 155.987 137.219 153.397 140.415 153.396C143.61 153.397 146.201 155.987 146.201 159.182ZM143.308 171.589L143.309 173.648C143.308 175.243 142.01 176.541 140.415 176.541C138.82 176.541 137.522 175.243 137.522 173.647L137.522 167.861C137.522 166.265 138.819 164.968 140.415 164.969C140.913 164.969 141.376 165.107 141.787 165.33C141.819 165.21 141.861 165.096 141.861 164.969L141.862 162.28C141.397 162.159 140.918 162.075 140.415 162.076C137.22 162.075 134.629 164.666 134.629 167.862L134.629 173.647C134.629 176.843 137.22 179.433 140.415 179.434C143.61 179.433 146.201 176.843 146.201 173.648L146.201 169.263C145.454 170.268 144.467 171.079 143.308 171.589Z" fill="white"/>
<path d="M146.201 208.182L146.2 213.969C146.201 217.164 143.61 219.755 140.415 219.754C139.912 219.755 139.433 219.669 138.969 219.55L138.969 216.861C138.968 216.733 139.01 216.617 139.042 216.498C139.452 216.723 139.915 216.861 140.415 216.861C142.011 216.862 143.308 215.563 143.308 213.969L143.308 208.183C143.308 206.587 142.01 205.289 140.414 205.29C138.82 205.289 137.522 206.587 137.522 208.183L137.523 210.241C136.363 210.751 135.376 211.563 134.629 212.567L134.629 208.183C134.629 204.987 137.219 202.397 140.415 202.396C143.61 202.397 146.201 204.987 146.201 208.182ZM143.308 220.589L143.309 222.648C143.308 224.243 142.01 225.541 140.415 225.541C138.82 225.541 137.522 224.243 137.522 222.647L137.522 216.861C137.522 215.265 138.819 213.968 140.415 213.969C140.913 213.969 141.376 214.107 141.787 214.33C141.819 214.21 141.861 214.097 141.861 213.969L141.862 211.28C141.397 211.159 140.918 211.075 140.415 211.076C137.22 211.075 134.629 213.666 134.629 216.862L134.629 222.647C134.629 225.843 137.22 228.433 140.415 228.434C143.61 228.433 146.201 225.843 146.201 222.648L146.201 218.263C145.454 219.268 144.467 220.079 143.308 220.589Z" fill="white"/>
<path d="M57.2014 155.182L57.2004 160.969C57.2014 164.164 54.6103 166.755 51.4149 166.754C50.9125 166.755 50.433 166.669 49.9685 166.55L49.9685 163.861C49.968 163.733 50.01 163.617 50.0419 163.498C50.4525 163.723 50.9154 163.861 51.4149 163.861C53.0106 163.862 54.3076 162.563 54.3076 160.969L54.3076 155.183C54.3076 153.587 53.0101 152.289 51.4144 152.29C49.8196 152.289 48.5221 153.587 48.5216 155.183L48.5226 157.241C47.3629 157.751 46.376 158.563 45.6288 159.567L45.6288 155.183C45.6294 151.987 48.2194 149.397 51.4153 149.396C54.6103 149.397 57.2009 151.987 57.2014 155.182ZM54.3082 167.589L54.3087 169.648C54.3082 171.243 53.0101 172.541 51.4154 172.541C49.8197 172.541 48.5222 171.243 48.5217 169.647L48.5222 163.861C48.5222 162.265 49.8192 160.968 51.4149 160.969C51.9134 160.969 52.3763 161.107 52.7874 161.33C52.8194 161.21 52.8613 161.097 52.8613 160.969L52.8619 158.28C52.3974 158.159 51.9179 158.075 51.415 158.076C48.2201 158.075 45.629 160.667 45.629 163.862L45.629 169.647C45.6295 172.843 48.2196 175.433 51.4154 175.434C54.6103 175.433 57.2009 172.843 57.2014 169.648L57.2014 165.263C56.4543 166.268 55.4669 167.079 54.3082 167.589Z" fill="white"/>
<path d="M57.2014 202.182L57.2004 207.969C57.2014 211.164 54.6103 213.755 51.4149 213.754C50.9125 213.755 50.433 213.669 49.9685 213.55L49.9685 210.861C49.968 210.733 50.01 210.617 50.0419 210.498C50.4525 210.723 50.9154 210.861 51.4149 210.861C53.0106 210.862 54.3076 209.563 54.3076 207.969L54.3076 202.183C54.3076 200.587 53.0101 199.289 51.4144 199.29C49.8196 199.289 48.5221 200.587 48.5216 202.183L48.5226 204.241C47.3629 204.751 46.376 205.563 45.6288 206.567L45.6288 202.183C45.6294 198.987 48.2194 196.397 51.4153 196.396C54.6103 196.397 57.2009 198.987 57.2014 202.182ZM54.3082 214.589L54.3087 216.648C54.3082 218.243 53.0101 219.541 51.4154 219.541C49.8197 219.541 48.5222 218.243 48.5217 216.647L48.5222 210.861C48.5222 209.265 49.8192 207.968 51.4149 207.969C51.9134 207.969 52.3763 208.107 52.7874 208.33C52.8194 208.21 52.8613 208.097 52.8613 207.969L52.8619 205.28C52.3974 205.159 51.9179 205.075 51.415 205.076C48.2201 205.075 45.629 207.667 45.629 210.862L45.629 216.647C45.6295 219.843 48.2196 222.433 51.4154 222.434C54.6103 222.433 57.2009 219.843 57.2014 216.648L57.2014 212.263C56.4543 213.268 55.4669 214.079 54.3082 214.589Z" fill="white"/>
<path d="M57.2014 179.182L57.2004 184.969C57.2014 188.164 54.6103 190.755 51.4149 190.754C50.9125 190.755 50.433 190.669 49.9685 190.55L49.9685 187.861C49.968 187.733 50.01 187.617 50.0419 187.498C50.4525 187.723 50.9154 187.861 51.4149 187.861C53.0106 187.862 54.3076 186.563 54.3076 184.969L54.3076 179.183C54.3076 177.587 53.0101 176.289 51.4144 176.29C49.8196 176.289 48.5221 177.587 48.5216 179.183L48.5226 181.241C47.3629 181.751 46.376 182.563 45.6288 183.567L45.6288 179.183C45.6294 175.987 48.2194 173.397 51.4153 173.396C54.6103 173.397 57.2009 175.987 57.2014 179.182ZM54.3082 191.589L54.3087 193.648C54.3082 195.243 53.0101 196.541 51.4154 196.541C49.8197 196.541 48.5222 195.243 48.5217 193.647L48.5222 187.861C48.5222 186.265 49.8192 184.968 51.4149 184.969C51.9134 184.969 52.3763 185.107 52.7874 185.33C52.8194 185.21 52.8613 185.097 52.8613 184.969L52.8619 182.28C52.3974 182.159 51.9179 182.075 51.415 182.076C48.2201 182.075 45.629 184.667 45.629 187.862L45.629 193.647C45.6295 196.843 48.2196 199.433 51.4154 199.434C54.6103 199.433 57.2009 196.843 57.2014 193.648L57.2014 189.263C56.4543 190.268 55.4669 191.079 54.3082 191.589Z" fill="white"/>
<path d="M57.2014 131.182L57.2004 136.969C57.2014 140.164 54.6103 142.755 51.4149 142.754C50.9125 142.755 50.433 142.669 49.9685 142.55L49.9685 139.861C49.968 139.733 50.01 139.617 50.0419 139.498C50.4525 139.723 50.9154 139.861 51.4149 139.861C53.0106 139.862 54.3076 138.563 54.3076 136.969L54.3076 131.183C54.3076 129.587 53.0101 128.289 51.4144 128.29C49.8196 128.289 48.5221 129.587 48.5216 131.183L48.5226 133.241C47.3629 133.751 46.376 134.563 45.6288 135.567L45.6288 131.183C45.6294 127.987 48.2194 125.397 51.4153 125.396C54.6103 125.397 57.2009 127.987 57.2014 131.182ZM54.3082 143.589L54.3087 145.648C54.3082 147.243 53.0101 148.541 51.4154 148.541C49.8197 148.541 48.5222 147.243 48.5217 145.647L48.5222 139.861C48.5222 138.265 49.8192 136.968 51.4149 136.969C51.9134 136.969 52.3763 137.107 52.7874 137.33C52.8194 137.21 52.8613 137.097 52.8613 136.969L52.8619 134.28C52.3974 134.159 51.9179 134.075 51.415 134.076C48.2201 134.075 45.629 136.667 45.629 139.862L45.629 145.647C45.6295 148.843 48.2196 151.433 51.4154 151.434C54.6103 151.433 57.2009 148.843 57.2014 145.648L57.2014 141.263C56.4543 142.268 55.4669 143.079 54.3082 143.589Z" fill="white"/>
<path d="M57.2014 226.182L57.2004 231.969C57.2014 235.164 54.6103 237.755 51.4149 237.754C50.9125 237.755 50.433 237.669 49.9685 237.55L49.9685 234.861C49.968 234.733 50.01 234.617 50.0419 234.498C50.4525 234.723 50.9154 234.861 51.4149 234.861C53.0106 234.862 54.3076 233.563 54.3076 231.969L54.3076 226.183C54.3076 224.587 53.0101 223.289 51.4144 223.29C49.8196 223.289 48.5221 224.587 48.5216 226.183L48.5226 228.241C47.3629 228.751 46.376 229.563 45.6288 230.567L45.6288 226.183C45.6294 222.987 48.2194 220.397 51.4153 220.396C54.6103 220.397 57.2009 222.987 57.2014 226.182ZM54.3082 238.589L54.3087 240.648C54.3082 242.243 53.0101 243.541 51.4154 243.541C49.8197 243.541 48.5222 242.243 48.5217 240.647L48.5222 234.861C48.5222 233.265 49.8192 231.968 51.4149 231.969C51.9134 231.969 52.3763 232.107 52.7874 232.33C52.8194 232.21 52.8613 232.097 52.8613 231.969L52.8619 229.28C52.3974 229.159 51.9179 229.075 51.415 229.076C48.2201 229.075 45.629 231.667 45.629 234.862L45.629 240.647C45.6295 243.843 48.2196 246.433 51.4154 246.434C54.6103 246.433 57.2009 243.843 57.2014 240.648L57.2014 236.263C56.4543 237.268 55.4669 238.079 54.3082 238.589Z" fill="white"/>
<path d="M111.201 55.1822L111.2 60.9687C111.201 64.1641 108.61 66.7552 105.415 66.7542C104.912 66.7552 104.433 66.6693 103.969 66.5504L103.969 63.8614C103.968 63.733 104.01 63.6172 104.042 63.4983C104.452 63.7231 104.915 63.8614 105.415 63.8614C107.011 63.8619 108.308 62.5629 108.308 60.9687L108.308 55.1832C108.308 53.587 107.01 52.2894 105.414 52.2899C103.82 52.2894 102.522 53.587 102.522 55.1827L102.523 57.2414C101.363 57.7508 100.376 58.5629 99.6288 59.5668L99.6288 55.1827C99.6294 51.9868 102.219 49.3967 105.415 49.3962C108.61 49.3967 111.201 51.9873 111.201 55.1822ZM108.308 67.5888L108.309 69.648C108.308 71.2427 107.01 72.5407 105.415 72.5412C103.82 72.5407 102.522 71.2432 102.522 69.6475L102.522 63.8615C102.522 62.2653 103.819 60.9682 105.415 60.9687C105.913 60.9687 106.376 61.1071 106.787 61.3303C106.819 61.2104 106.861 61.0966 106.861 60.9687L106.862 58.2802C106.397 58.1594 105.918 58.0754 105.415 58.076C102.22 58.0755 99.629 60.6665 99.629 63.862L99.629 69.6474C99.6295 72.8433 102.22 75.4334 105.415 75.4339C108.61 75.4334 111.201 72.8429 111.201 69.6479L111.201 65.2628C110.454 66.2677 109.467 67.0793 108.308 67.5888Z" fill="white"/>
<path d="M111.201 102.182L111.2 107.969C111.201 111.164 108.61 113.755 105.415 113.754C104.912 113.755 104.433 113.669 103.969 113.55L103.969 110.861C103.968 110.733 104.01 110.617 104.042 110.498C104.452 110.723 104.915 110.861 105.415 110.861C107.011 110.862 108.308 109.563 108.308 107.969L108.308 102.183C108.308 100.587 107.01 99.2894 105.414 99.2899C103.82 99.2894 102.522 100.587 102.522 102.183L102.523 104.241C101.363 104.751 100.376 105.563 99.6288 106.567L99.6288 102.183C99.6294 98.9868 102.219 96.3967 105.415 96.3962C108.61 96.3967 111.201 98.9873 111.201 102.182ZM108.308 114.589L108.309 116.648C108.308 118.243 107.01 119.541 105.415 119.541C103.82 119.541 102.522 118.243 102.522 116.647L102.522 110.861C102.522 109.265 103.819 107.968 105.415 107.969C105.913 107.969 106.376 108.107 106.787 108.33C106.819 108.21 106.861 108.097 106.861 107.969L106.862 105.28C106.397 105.159 105.918 105.075 105.415 105.076C102.22 105.075 99.629 107.667 99.629 110.862L99.629 116.647C99.6295 119.843 102.22 122.433 105.415 122.434C108.61 122.433 111.201 119.843 111.201 116.648L111.201 112.263C110.454 113.268 109.467 114.079 108.308 114.589Z" fill="white"/>
<path d="M111.201 197.182L111.2 202.969C111.201 206.164 108.61 208.755 105.415 208.754C104.912 208.755 104.433 208.669 103.969 208.55L103.969 205.861C103.968 205.733 104.01 205.617 104.042 205.498C104.452 205.723 104.915 205.861 105.415 205.861C107.011 205.862 108.308 204.563 108.308 202.969L108.308 197.183C108.308 195.587 107.01 194.289 105.414 194.29C103.82 194.289 102.522 195.587 102.522 197.183L102.523 199.241C101.363 199.751 100.376 200.563 99.6288 201.567L99.6288 197.183C99.6294 193.987 102.219 191.397 105.415 191.396C108.61 191.397 111.201 193.987 111.201 197.182ZM108.308 209.589L108.309 211.648C108.308 213.243 107.01 214.541 105.415 214.541C103.82 214.541 102.522 213.243 102.522 211.647L102.522 205.861C102.522 204.265 103.819 202.968 105.415 202.969C105.913 202.969 106.376 203.107 106.787 203.33C106.819 203.21 106.861 203.097 106.861 202.969L106.862 200.28C106.397 200.159 105.918 200.075 105.415 200.076C102.22 200.075 99.629 202.667 99.629 205.862L99.629 211.647C99.6295 214.843 102.22 217.433 105.415 217.434C108.61 217.433 111.201 214.843 111.201 211.648L111.201 207.263C110.454 208.268 109.467 209.079 108.308 209.589Z" fill="white"/>
<path d="M111.201 79.1822L111.2 84.9687C111.201 88.1641 108.61 90.7552 105.415 90.7542C104.912 90.7552 104.433 90.6693 103.969 90.5504L103.969 87.8614C103.968 87.733 104.01 87.6172 104.042 87.4983C104.452 87.7231 104.915 87.8614 105.415 87.8614C107.011 87.8619 108.308 86.5629 108.308 84.9687L108.308 79.1832C108.308 77.587 107.01 76.2894 105.414 76.2899C103.82 76.2894 102.522 77.587 102.522 79.1827L102.523 81.2414C101.363 81.7508 100.376 82.5629 99.6288 83.5668L99.6288 79.1827C99.6294 75.9868 102.219 73.3967 105.415 73.3962C108.61 73.3967 111.201 75.9873 111.201 79.1822ZM108.308 91.5888L108.309 93.648C108.308 95.2427 107.01 96.5407 105.415 96.5412C103.82 96.5407 102.522 95.2432 102.522 93.6475L102.522 87.8615C102.522 86.2653 103.819 84.9682 105.415 84.9687C105.913 84.9687 106.376 85.1071 106.787 85.3303C106.819 85.2104 106.861 85.0966 106.861 84.9687L106.862 82.2802C106.397 82.1594 105.918 82.0754 105.415 82.076C102.22 82.0755 99.629 84.6665 99.629 87.862L99.629 93.6474C99.6295 96.8433 102.22 99.4334 105.415 99.4339C108.61 99.4334 111.201 96.8429 111.201 93.6479L111.201 89.2628C110.454 90.2677 109.467 91.0793 108.308 91.5888Z" fill="white"/>
<path d="M111.201 174.182L111.2 179.969C111.201 183.164 108.61 185.755 105.415 185.754C104.912 185.755 104.433 185.669 103.969 185.55L103.969 182.861C103.968 182.733 104.01 182.617 104.042 182.498C104.452 182.723 104.915 182.861 105.415 182.861C107.011 182.862 108.308 181.563 108.308 179.969L108.308 174.183C108.308 172.587 107.01 171.289 105.414 171.29C103.82 171.289 102.522 172.587 102.522 174.183L102.523 176.241C101.363 176.751 100.376 177.563 99.6288 178.567L99.6288 174.183C99.6294 170.987 102.219 168.397 105.415 168.396C108.61 168.397 111.201 170.987 111.201 174.182ZM108.308 186.589L108.309 188.648C108.308 190.243 107.01 191.541 105.415 191.541C103.82 191.541 102.522 190.243 102.522 188.647L102.522 182.861C102.522 181.265 103.819 179.968 105.415 179.969C105.913 179.969 106.376 180.107 106.787 180.33C106.819 180.21 106.861 180.097 106.861 179.969L106.862 177.28C106.397 177.159 105.918 177.075 105.415 177.076C102.22 177.075 99.629 179.667 99.629 182.862L99.629 188.647C99.6295 191.843 102.22 194.433 105.415 194.434C108.61 194.433 111.201 191.843 111.201 188.648L111.201 184.263C110.454 185.268 109.467 186.079 108.308 186.589Z" fill="white"/>
<path d="M111.201 150.182L111.2 155.969C111.201 159.164 108.61 161.755 105.415 161.754C104.912 161.755 104.433 161.669 103.969 161.55L103.969 158.861C103.968 158.733 104.01 158.617 104.042 158.498C104.452 158.723 104.915 158.861 105.415 158.861C107.011 158.862 108.308 157.563 108.308 155.969L108.308 150.183C108.308 148.587 107.01 147.289 105.414 147.29C103.82 147.289 102.522 148.587 102.522 150.183L102.523 152.241C101.363 152.751 100.376 153.563 99.6288 154.567L99.6288 150.183C99.6294 146.987 102.219 144.397 105.415 144.396C108.61 144.397 111.201 146.987 111.201 150.182ZM108.308 162.589L108.309 164.648C108.308 166.243 107.01 167.541 105.415 167.541C103.82 167.541 102.522 166.243 102.522 164.648L102.522 158.862C102.522 157.265 103.819 155.968 105.415 155.969C105.913 155.969 106.376 156.107 106.787 156.33C106.819 156.21 106.861 156.097 106.861 155.969L106.862 153.28C106.397 153.159 105.918 153.075 105.415 153.076C102.22 153.076 99.629 155.667 99.629 158.862L99.629 164.647C99.6295 167.843 102.22 170.433 105.415 170.434C108.61 170.433 111.201 167.843 111.201 164.648L111.201 160.263C110.454 161.268 109.467 162.079 108.308 162.589Z" fill="white"/>
<path d="M111.201 126.182L111.2 131.969C111.201 135.164 108.61 137.755 105.415 137.754C104.912 137.755 104.433 137.669 103.969 137.55L103.969 134.861C103.968 134.733 104.01 134.617 104.042 134.498C104.452 134.723 104.915 134.861 105.415 134.861C107.011 134.862 108.308 133.563 108.308 131.969L108.308 126.183C108.308 124.587 107.01 123.289 105.414 123.29C103.82 123.289 102.522 124.587 102.522 126.183L102.523 128.241C101.363 128.751 100.376 129.563 99.6288 130.567L99.6288 126.183C99.6294 122.987 102.219 120.397 105.415 120.396C108.61 120.397 111.201 122.987 111.201 126.182ZM108.308 138.589L108.309 140.648C108.308 142.243 107.01 143.541 105.415 143.541C103.82 143.541 102.522 142.243 102.522 140.647L102.522 134.861C102.522 133.265 103.819 131.968 105.415 131.969C105.913 131.969 106.376 132.107 106.787 132.33C106.819 132.21 106.861 132.097 106.861 131.969L106.862 129.28C106.397 129.159 105.918 129.075 105.415 129.076C102.22 129.075 99.629 131.667 99.629 134.862L99.629 140.647C99.6295 143.843 102.22 146.433 105.415 146.434C108.61 146.433 111.201 143.843 111.201 140.648L111.201 136.263C110.454 137.268 109.467 138.079 108.308 138.589Z" fill="white"/>
<path d="M111.201 221.182L111.2 226.969C111.201 230.164 108.61 232.755 105.415 232.754C104.912 232.755 104.433 232.669 103.969 232.55L103.969 229.861C103.968 229.733 104.01 229.617 104.042 229.498C104.452 229.723 104.915 229.861 105.415 229.861C107.011 229.862 108.308 228.563 108.308 226.969L108.308 221.183C108.308 219.587 107.01 218.289 105.414 218.29C103.82 218.289 102.522 219.587 102.522 221.183L102.523 223.241C101.363 223.751 100.376 224.563 99.6288 225.567L99.6288 221.183C99.6294 217.987 102.219 215.397 105.415 215.396C108.61 215.397 111.201 217.987 111.201 221.182ZM108.308 233.589L108.309 235.648C108.308 237.243 107.01 238.541 105.415 238.541C103.82 238.541 102.522 237.243 102.522 235.647L102.522 229.861C102.522 228.265 103.819 226.968 105.415 226.969C105.913 226.969 106.376 227.107 106.787 227.33C106.819 227.21 106.861 227.097 106.861 226.969L106.862 224.28C106.397 224.159 105.918 224.075 105.415 224.076C102.22 224.075 99.629 226.667 99.629 229.862L99.629 235.647C99.6295 238.843 102.22 241.433 105.415 241.434C108.61 241.433 111.201 238.843 111.201 235.648L111.201 231.263C110.454 232.268 109.467 233.079 108.308 233.589Z" fill="white"/>
</svg>
