<svg width="161" height="258" viewBox="0 0 161 258" fill="none" xmlns="http://www.w3.org/2000/svg">
<path d="M21.2808 160.575L21.2799 166.362C21.2808 169.557 18.6898 172.148 15.4944 172.147C14.9919 172.148 14.5125 172.062 14.048 171.943L14.048 169.254C14.0475 169.126 14.0894 169.01 14.1214 168.891C14.5319 169.116 14.9949 169.254 15.4943 169.254C17.09 169.255 18.3871 167.956 18.3871 166.362L18.3871 160.576C18.3871 158.98 17.0895 157.682 15.4938 157.683C13.8991 157.682 12.6016 158.98 12.6011 160.576L12.6021 162.634C11.4424 163.144 10.4555 163.956 9.70831 164.96L9.70831 160.576C9.70882 157.38 12.2989 154.79 15.4948 154.789C18.6898 154.79 21.2804 157.38 21.2808 160.575ZM18.3876 172.982L18.3881 175.041C18.3877 176.636 17.0896 177.934 15.4949 177.934C13.8992 177.934 12.6016 176.636 12.6011 175.04L12.6017 169.254C12.6017 167.658 13.8987 166.361 15.4944 166.362C15.9928 166.362 16.4558 166.5 16.8669 166.723C16.8988 166.603 16.9408 166.49 16.9408 166.362L16.9413 163.673C16.4768 163.552 15.9974 163.468 15.4944 163.469C12.2995 163.468 9.70847 166.06 9.70844 169.255L9.70844 175.04C9.70895 178.236 12.299 180.826 15.4949 180.827C18.6898 180.826 21.2804 178.236 21.2809 175.041L21.2809 170.656C20.5337 171.661 19.5463 172.472 18.3876 172.982Z" fill="white"/>
<path d="M21.2014 214.956L21.2004 220.743C21.2014 223.938 18.6103 226.529 15.4149 226.528C14.9125 226.529 14.433 226.443 13.9685 226.324L13.9685 223.635C13.968 223.507 14.01 223.391 14.0419 223.272C14.4525 223.497 14.9154 223.635 15.4149 223.635C17.0106 223.636 18.3076 222.337 18.3076 220.743L18.3076 214.957C18.3076 213.361 17.0101 212.063 15.4144 212.064C13.8196 212.063 12.5221 213.361 12.5216 214.957L12.5226 217.015C11.3629 217.525 10.376 218.337 9.62884 219.341L9.62884 214.957C9.62935 211.761 12.2194 209.171 15.4153 209.17C18.6103 209.171 21.2009 211.761 21.2014 214.956ZM18.3082 227.363L18.3087 229.422C18.3082 231.017 17.0101 232.315 15.4154 232.315C13.8197 232.315 12.5222 231.017 12.5217 229.421L12.5222 223.635C12.5222 222.039 13.8192 220.742 15.4149 220.743C15.9134 220.743 16.3763 220.881 16.7874 221.104C16.8194 220.984 16.8613 220.87 16.8613 220.743L16.8619 218.054C16.3974 217.933 15.9179 217.849 15.415 217.85C12.2201 217.849 9.629 220.44 9.62897 223.636L9.62897 229.421C9.62948 232.617 12.2196 235.207 15.4154 235.208C18.6103 235.207 21.2009 232.617 21.2014 229.422L21.2014 225.037C20.4543 226.042 19.4669 226.853 18.3082 227.363Z" fill="white"/>
<path d="M21.2811 187.611L21.2801 193.397C21.2811 196.593 18.69 199.184 15.4946 199.183C14.9922 199.184 14.5127 199.098 14.0482 198.979L14.0482 196.29C14.0477 196.162 14.0897 196.046 14.1216 195.927C14.5322 196.152 14.9951 196.29 15.4946 196.29C17.0903 196.29 18.3874 194.991 18.3873 193.397L18.3873 187.612C18.3873 186.016 17.0898 184.718 15.4941 184.718C13.8994 184.718 12.6018 186.016 12.6013 187.611L12.6023 189.67C11.4426 190.179 10.4557 190.991 9.70855 191.995L9.70855 187.611C9.70906 184.415 12.2991 181.825 15.495 181.825C18.69 181.825 21.2806 184.416 21.2811 187.611ZM18.3879 200.017L18.3884 202.077C18.3879 203.671 17.0898 204.969 15.4951 204.97C13.8994 204.969 12.6019 203.672 12.6014 202.076L12.6019 196.29C12.6019 194.694 13.8989 193.397 15.4946 193.397C15.9931 193.397 16.4561 193.536 16.8671 193.759C16.8991 193.639 16.9411 193.525 16.9411 193.397L16.9416 190.709C16.4771 190.588 15.9976 190.504 15.4947 190.505C12.2998 190.504 9.70871 193.095 9.70868 196.291L9.70868 202.076C9.70919 205.272 12.2993 207.862 15.4952 207.862C18.6901 207.862 21.2806 205.271 21.2812 202.076L21.2812 197.691C20.534 198.696 19.5466 199.508 18.3879 200.017Z" fill="white"/>
<path d="M94.8686 173.538L94.8676 179.325C94.8686 182.52 92.2775 185.111 89.0821 185.11C88.5797 185.111 88.1002 185.025 87.6357 184.906L87.6357 182.217C87.6352 182.089 87.6772 181.973 87.7092 181.854C88.1197 182.079 88.5827 182.217 89.0821 182.217C90.6778 182.218 91.9749 180.919 91.9749 179.325L91.9749 173.539C91.9749 171.943 90.6773 170.645 89.0816 170.646C87.4869 170.645 86.1894 171.943 86.1889 173.539L86.1898 175.597C85.0302 176.107 84.0433 176.919 83.2961 177.923L83.2961 173.539C83.2966 170.343 85.8867 167.753 89.0826 167.752C92.2776 167.753 94.8681 170.343 94.8686 173.538ZM91.9754 185.945L91.9759 188.004C91.9754 189.599 90.6774 190.897 89.0827 190.897C87.4869 190.897 86.1894 189.599 86.1889 188.003L86.1894 182.217C86.1894 180.621 87.4865 179.324 89.0822 179.325C89.5806 179.325 90.0436 179.463 90.4546 179.686C90.4866 179.566 90.5286 179.452 90.5286 179.325L90.5291 176.636C90.0646 176.515 89.5851 176.431 89.0822 176.432C85.8873 176.431 83.2962 179.022 83.2962 182.218L83.2962 188.003C83.2967 191.199 85.8868 193.789 89.0827 193.79C92.2776 193.789 94.8682 191.199 94.8687 188.004L94.8687 183.619C94.1215 184.624 93.1341 185.435 91.9754 185.945Z" fill="white"/>
<path d="M94.869 200.574L94.868 206.36C94.869 209.556 92.2779 212.147 89.0825 212.146C88.5801 212.147 88.1006 212.061 87.6361 211.942L87.6361 209.253C87.6356 209.124 87.6776 209.009 87.7095 208.89C88.1201 209.115 88.583 209.253 89.0825 209.253C90.6782 209.253 91.9752 207.954 91.9752 206.36L91.9752 200.575C91.9752 198.978 90.6777 197.681 89.082 197.681C87.4872 197.681 86.1897 198.978 86.1892 200.574L86.1902 202.633C85.0305 203.142 84.0436 203.954 83.2964 204.958L83.2964 200.574C83.297 197.378 85.887 194.788 89.0829 194.788C92.2779 194.788 94.8685 197.379 94.869 200.574ZM91.9758 212.98L91.9763 215.039C91.9758 216.634 90.6777 217.932 89.083 217.933C87.4873 217.932 86.1898 216.635 86.1893 215.039L86.1898 209.253C86.1898 207.657 87.4868 206.36 89.0825 206.36C89.581 206.36 90.044 206.499 90.455 206.722C90.487 206.602 90.5289 206.488 90.5289 206.36L90.5295 203.672C90.065 203.551 89.5855 203.467 89.0826 203.467C85.8877 203.467 83.2966 206.058 83.2966 209.253L83.2966 215.039C83.2971 218.235 85.8872 220.825 89.083 220.825C92.2779 220.825 94.8685 218.234 94.869 215.039L94.869 210.654C94.1219 211.659 93.1345 212.471 91.9758 212.98Z" fill="white"/>
<path d="M58.2722 137.179L58.2712 142.965C58.2722 146.161 55.6811 148.752 52.4857 148.751C51.9833 148.752 51.5038 148.666 51.0393 148.547L51.0393 145.858C51.0388 145.73 51.0808 145.614 51.1127 145.495C51.5233 145.72 51.9862 145.858 52.4857 145.858C54.0814 145.858 55.3784 144.559 55.3784 142.965L55.3784 137.18C55.3784 135.583 54.0809 134.286 52.4852 134.286C50.8904 134.286 49.5929 135.583 49.5924 137.179L49.5934 139.238C48.4337 139.747 47.4468 140.559 46.6996 141.563L46.6996 137.179C46.7002 133.983 49.2902 131.393 52.4861 131.393C55.6811 131.393 58.2717 133.984 58.2722 137.179ZM55.379 149.585L55.3795 151.644C55.379 153.239 54.0809 154.537 52.4862 154.538C50.8905 154.537 49.593 153.24 49.5925 151.644L49.593 145.858C49.593 144.262 50.89 142.965 52.4857 142.965C52.9842 142.965 53.4472 143.104 53.8582 143.327C53.8902 143.207 53.9321 143.093 53.9321 142.965L53.9327 140.277C53.4682 140.156 52.9887 140.072 52.4858 140.072C49.2909 140.072 46.6998 142.663 46.6998 145.858L46.6998 151.644C46.7003 154.84 49.2904 157.43 52.4862 157.43C55.6811 157.43 58.2717 154.839 58.2722 151.644L58.2722 147.259C57.5251 148.264 56.5377 149.076 55.379 149.585Z" fill="white"/>
<path d="M58.1932 191.56L58.1922 197.346C58.1932 200.542 55.6021 203.133 52.4067 203.132C51.9043 203.133 51.4248 203.047 50.9603 202.928L50.9603 200.239C50.9598 200.111 51.0018 199.995 51.0337 199.876C51.4443 200.101 51.9073 200.239 52.4067 200.239C54.0024 200.239 55.2995 198.94 55.2994 197.346L55.2994 191.561C55.2994 189.964 54.0019 188.667 52.4062 188.667C50.8115 188.667 49.5139 189.964 49.5134 191.56L49.5144 193.619C48.3547 194.128 47.3679 194.94 46.6207 195.944L46.6207 191.56C46.6212 188.364 49.2113 185.774 52.4071 185.774C55.6021 185.774 58.1927 188.365 58.1932 191.56ZM55.3 203.966L55.3005 206.025C55.3 207.62 54.002 208.918 52.4072 208.919C50.8115 208.918 49.514 207.621 49.5135 206.025L49.514 200.239C49.514 198.643 50.811 197.346 52.4068 197.346C52.9052 197.346 53.3682 197.485 53.7792 197.708C53.8112 197.588 53.8532 197.474 53.8532 197.346L53.8537 194.658C53.3892 194.537 52.9097 194.453 52.4068 194.453C49.2119 194.453 46.6208 197.044 46.6208 200.239L46.6208 206.025C46.6213 209.221 49.2114 211.811 52.4073 211.811C55.6022 211.811 58.1928 209.22 58.1933 206.025L58.1933 201.64C57.4461 202.645 56.4587 203.457 55.3 203.966Z" fill="white"/>
<path d="M58.2728 164.214L58.2718 170.001C58.2728 173.196 55.6817 175.787 52.4863 175.786C51.9839 175.787 51.5044 175.701 51.0399 175.583L51.0399 172.894C51.0394 172.765 51.0814 172.649 51.1133 172.53C51.5239 172.755 51.9868 172.894 52.4863 172.894C54.082 172.894 55.3791 171.595 55.379 170.001L55.379 164.215C55.379 162.619 54.0815 161.322 52.4858 161.322C50.8911 161.322 49.5935 162.619 49.593 164.215L49.594 166.273C48.4343 166.783 47.4474 167.595 46.7003 168.599L46.7003 164.215C46.7008 161.019 49.2908 158.429 52.4867 158.428C55.6817 158.429 58.2723 161.019 58.2728 164.214ZM55.3796 176.621L55.3801 178.68C55.3796 180.275 54.0815 181.573 52.4868 181.573C50.8911 181.573 49.5936 180.275 49.5931 178.68L49.5936 172.894C49.5936 171.297 50.8906 170 52.4863 170.001C52.9848 170.001 53.4478 170.139 53.8588 170.362C53.8908 170.243 53.9328 170.129 53.9328 170.001L53.9333 167.312C53.4688 167.191 52.9893 167.108 52.4864 167.108C49.2915 167.108 46.7004 169.699 46.7004 172.894L46.7004 178.68C46.7009 181.875 49.291 184.465 52.4869 184.466C55.6818 184.466 58.2723 181.875 58.2729 178.68L58.2729 174.295C57.5257 175.3 56.5383 176.111 55.3796 176.621Z" fill="white"/>
<path d="M58.1932 218.595L58.1922 224.382C58.1932 227.577 55.6021 230.168 52.4067 230.167C51.9043 230.168 51.4248 230.082 50.9603 229.963L50.9603 227.274C50.9598 227.146 51.0018 227.03 51.0337 226.911C51.4443 227.136 51.9073 227.274 52.4067 227.274C54.0024 227.275 55.2995 225.976 55.2994 224.382L55.2994 218.596C55.2994 217 54.0019 215.702 52.4062 215.703C50.8115 215.702 49.5139 217 49.5134 218.596L49.5144 220.654C48.3547 221.164 47.3679 221.976 46.6207 222.98L46.6207 218.596C46.6212 215.4 49.2112 212.81 52.4071 212.809C55.6021 212.81 58.1927 215.4 58.1932 218.595ZM55.3 231.002L55.3005 233.061C55.3 234.656 54.002 235.954 52.4072 235.954C50.8115 235.954 49.514 234.656 49.5135 233.06L49.514 227.274C49.514 225.678 50.811 224.381 52.4068 224.382C52.9052 224.382 53.3682 224.52 53.7792 224.743C53.8112 224.623 53.8532 224.51 53.8532 224.382L53.8537 221.693C53.3892 221.572 52.9097 221.488 52.4068 221.489C49.2119 221.488 46.6208 224.08 46.6208 227.275L46.6208 233.06C46.6213 236.256 49.2114 238.846 52.4073 238.847C55.6022 238.846 58.1928 236.256 58.1933 233.061L58.1933 228.676C57.4461 229.681 56.4587 230.492 55.3 231.002Z" fill="white"/>
<path d="M131.94 133.701L131.939 139.487C131.94 142.683 129.349 145.274 126.153 145.273C125.651 145.274 125.171 145.188 124.707 145.069L124.707 142.38C124.706 142.252 124.748 142.136 124.78 142.017C125.191 142.242 125.654 142.38 126.153 142.38C127.749 142.381 129.046 141.082 129.046 139.487L129.046 133.702C129.046 132.106 127.748 130.808 126.153 130.809C124.558 130.808 123.26 132.106 123.26 133.701L123.261 135.76C122.101 136.269 121.114 137.082 120.367 138.085L120.367 133.701C120.368 130.506 122.958 127.915 126.154 127.915C129.349 127.915 131.939 130.506 131.94 133.701ZM129.046 146.107L129.047 148.167C129.046 149.761 127.748 151.059 126.154 151.06C124.558 151.059 123.26 149.762 123.26 148.166L123.26 142.38C123.26 140.784 124.558 139.487 126.153 139.487C126.652 139.487 127.115 139.626 127.526 139.849C127.558 139.729 127.6 139.615 127.6 139.487L127.6 136.799C127.136 136.678 126.656 136.594 126.153 136.595C122.958 136.594 120.367 139.185 120.367 142.381L120.367 148.166C120.368 151.362 122.958 153.952 126.154 153.953C129.349 153.952 131.939 151.362 131.94 148.167L131.94 143.782C131.193 144.786 130.205 145.598 129.046 146.107Z" fill="white"/>
<path d="M131.86 86.4906L131.859 92.2771C131.86 95.4725 129.269 98.0635 126.074 98.0625C125.571 98.0635 125.092 97.9776 124.627 97.8588L124.627 95.1698C124.627 95.0414 124.669 94.9255 124.701 94.8067C125.111 95.0315 125.574 95.1698 126.074 95.1698C127.669 95.1703 128.966 93.8712 128.966 92.277L128.966 86.4915C128.966 84.8953 127.669 83.5978 126.073 83.5983C124.478 83.5978 123.181 84.8953 123.18 86.491L123.181 88.5497C122.022 89.0591 121.035 89.8712 120.288 90.8751L120.288 86.4911C120.288 83.2952 122.878 80.7051 126.074 80.7046C129.269 80.7051 131.86 83.2957 131.86 86.4906ZM128.967 98.8971L128.967 100.956C128.967 102.551 127.669 103.849 126.074 103.85C124.479 103.849 123.181 102.552 123.18 100.956L123.181 95.1698C123.181 93.5736 124.478 92.2766 126.074 92.2771C126.572 92.2771 127.035 92.4154 127.446 92.6387C127.478 92.5188 127.52 92.4049 127.52 92.2771L127.521 89.5886C127.056 89.4677 126.577 89.3838 126.074 89.3843C122.879 89.3838 120.288 91.9749 120.288 95.1703L120.288 100.956C120.288 104.152 122.878 106.742 126.074 106.742C129.269 106.742 131.86 104.151 131.86 100.956L131.86 96.5712C131.113 97.5761 130.126 98.3877 128.967 98.8971Z" fill="white"/>
<path d="M131.86 188.082L131.859 193.868C131.86 197.064 129.269 199.655 126.074 199.654C125.571 199.655 125.092 199.569 124.627 199.45L124.627 196.761C124.627 196.633 124.669 196.517 124.701 196.398C125.111 196.623 125.574 196.761 126.074 196.761C127.669 196.762 128.966 195.462 128.966 193.868L128.966 188.083C128.966 186.487 127.669 185.189 126.073 185.19C124.478 185.189 123.181 186.487 123.18 188.082L123.181 190.141C122.022 190.65 121.035 191.463 120.288 192.466L120.288 188.082C120.288 184.886 122.878 182.296 126.074 182.296C129.269 182.296 131.86 184.887 131.86 188.082ZM128.967 200.488L128.967 202.548C128.967 204.142 127.669 205.44 126.074 205.441C124.479 205.44 123.181 204.143 123.18 202.547L123.181 196.761C123.181 195.165 124.478 193.868 126.074 193.868C126.572 193.868 127.035 194.007 127.446 194.23C127.478 194.11 127.52 193.996 127.52 193.868L127.521 191.18C127.056 191.059 126.577 190.975 126.074 190.976C122.879 190.975 120.288 193.566 120.288 196.762L120.288 202.547C120.288 205.743 122.878 208.333 126.074 208.334C129.269 208.333 131.86 205.742 131.86 202.548L131.86 198.162C131.113 199.167 130.126 199.979 128.967 200.488Z" fill="white"/>
<path d="M131.94 59.1452L131.939 64.9317C131.94 68.1271 129.349 70.7182 126.153 70.7172C125.651 70.7182 125.172 70.6322 124.707 70.5134L124.707 67.8244C124.707 67.696 124.748 67.5802 124.78 67.4613C125.191 67.6861 125.654 67.8244 126.153 67.8244C127.749 67.8249 129.046 66.5259 129.046 64.9317L129.046 59.1462C129.046 57.5499 127.749 56.2524 126.153 56.2529C124.558 56.2524 123.261 57.5499 123.26 59.1457L123.261 61.2044C122.101 61.7138 121.115 62.5259 120.367 63.5297L120.367 59.1457C120.368 55.9498 122.958 53.3597 126.154 53.3592C129.349 53.3597 131.939 55.9503 131.94 59.1452ZM129.047 71.5518L129.047 73.6109C129.047 75.2057 127.749 76.5037 126.154 76.5042C124.558 76.5037 123.261 75.2061 123.26 73.6105L123.261 67.8245C123.261 66.2282 124.558 64.9312 126.153 64.9317C126.652 64.9317 127.115 65.0701 127.526 65.2933C127.558 65.1734 127.6 65.0595 127.6 64.9317L127.6 62.2432C127.136 62.1223 126.656 62.0384 126.153 62.0389C122.959 62.0385 120.368 64.6295 120.367 67.8249L120.367 73.6104C120.368 76.8063 122.958 79.3964 126.154 79.3969C129.349 79.3964 131.939 76.8058 131.94 73.6109L131.94 69.2258C131.193 70.2307 130.205 71.0423 129.047 71.5518Z" fill="white"/>
<path d="M131.94 160.736L131.939 166.523C131.94 169.718 129.349 172.309 126.153 172.308C125.651 172.309 125.172 172.224 124.707 172.105L124.707 169.416C124.707 169.287 124.748 169.171 124.78 169.053C125.191 169.277 125.654 169.416 126.153 169.416C127.749 169.416 129.046 168.117 129.046 166.523L129.046 160.737C129.046 159.141 127.749 157.844 126.153 157.844C124.558 157.844 123.261 159.141 123.26 160.737L123.261 162.796C122.101 163.305 121.115 164.117 120.367 165.121L120.367 160.737C120.368 157.541 122.958 154.951 126.154 154.95C129.349 154.951 131.939 157.542 131.94 160.736ZM129.047 173.143L129.047 175.202C129.047 176.797 127.749 178.095 126.154 178.095C124.558 178.095 123.261 176.797 123.26 175.202L123.261 169.416C123.261 167.82 124.558 166.522 126.153 166.523C126.652 166.523 127.115 166.661 127.526 166.885C127.558 166.765 127.6 166.651 127.6 166.523L127.6 163.834C127.136 163.714 126.656 163.63 126.153 163.63C122.959 163.63 120.368 166.221 120.367 169.416L120.367 175.202C120.368 178.398 122.958 180.988 126.154 180.988C129.349 180.988 131.939 178.397 131.94 175.202L131.94 170.817C131.193 171.822 130.205 172.634 129.047 173.143Z" fill="white"/>
<path d="M131.86 215.117L131.859 220.904C131.86 224.099 129.269 226.69 126.074 226.689C125.572 226.69 125.092 226.604 124.628 226.486L124.628 223.797C124.627 223.668 124.669 223.552 124.701 223.434C125.112 223.658 125.574 223.797 126.074 223.797C127.67 223.797 128.967 222.498 128.967 220.904L128.967 215.118C128.967 213.522 127.669 212.225 126.073 212.225C124.479 212.225 123.181 213.522 123.181 215.118L123.182 217.177C122.022 217.686 121.035 218.498 120.288 219.502L120.288 215.118C120.288 211.922 122.878 209.332 126.074 209.331C129.269 209.332 131.86 211.923 131.86 215.117ZM128.967 227.524L128.968 229.583C128.967 231.178 127.669 232.476 126.074 232.476C124.479 232.476 123.181 231.178 123.181 229.583L123.181 223.797C123.181 222.2 124.478 220.903 126.074 220.904C126.572 220.904 127.035 221.042 127.446 221.265C127.478 221.146 127.52 221.032 127.52 220.904L127.521 218.215C127.056 218.095 126.577 218.011 126.074 218.011C122.879 218.011 120.288 220.602 120.288 223.797L120.288 229.583C120.289 232.779 122.879 235.369 126.075 235.369C129.269 235.369 131.86 232.778 131.861 229.583L131.861 225.198C131.113 226.203 130.126 227.015 128.967 227.524Z" fill="white"/>
<path d="M39.9347 147.701L39.9337 153.487C39.9347 156.683 37.3436 159.274 34.1482 159.273C33.6457 159.274 33.1663 159.188 32.7018 159.069L32.7018 156.38C32.7013 156.252 32.7432 156.136 32.7752 156.017C33.1857 156.242 33.6487 156.38 34.1481 156.38C35.7439 156.381 37.0409 155.082 37.0409 153.487L37.0409 147.702C37.0409 146.106 35.7433 144.808 34.1476 144.809C32.5529 144.808 31.2554 146.106 31.2549 147.701L31.2559 149.76C30.0962 150.269 29.1093 151.082 28.3621 152.085L28.3621 147.701C28.3626 144.505 30.9527 141.915 34.1486 141.915C37.3436 141.915 39.9342 144.506 39.9347 147.701ZM37.0414 160.107L37.0419 162.167C37.0415 163.761 35.7434 165.059 34.1487 165.06C32.553 165.059 31.2554 163.762 31.255 162.166L31.2555 156.38C31.2555 154.784 32.5525 153.487 34.1482 153.487C34.6467 153.487 35.1096 153.626 35.5207 153.849C35.5526 153.729 35.5946 153.615 35.5946 153.487L35.5951 150.799C35.1307 150.678 34.6512 150.594 34.1482 150.595C30.9533 150.594 28.3623 153.185 28.3622 156.381L28.3622 162.166C28.3628 165.362 30.9528 167.952 34.1487 167.953C37.3436 167.952 39.9342 165.362 39.9347 162.167L39.9347 157.782C39.1875 158.786 38.2001 159.598 37.0414 160.107Z" fill="white"/>
<path d="M39.8553 192.735L39.8543 198.521C39.8553 201.717 37.2642 204.308 34.0688 204.307C33.5664 204.308 33.0869 204.222 32.6224 204.103L32.6224 201.414C32.6219 201.286 32.6639 201.17 32.6959 201.051C33.1064 201.276 33.5694 201.414 34.0688 201.414C35.6645 201.415 36.9616 200.116 36.9615 198.521L36.9615 192.736C36.9615 191.14 35.664 189.842 34.0683 189.843C32.4736 189.842 31.1761 191.14 31.1755 192.735L31.1765 194.794C30.0169 195.304 29.03 196.116 28.2828 197.119L28.2828 192.735C28.2833 189.54 30.8734 186.949 34.0693 186.949C37.2642 186.949 39.8548 189.54 39.8553 192.735ZM36.9621 205.142L36.9626 207.201C36.9621 208.795 35.6641 210.093 34.0693 210.094C32.4736 210.093 31.1761 208.796 31.1756 207.2L31.1761 201.414C31.1761 199.818 32.4732 198.521 34.0689 198.521C34.5673 198.521 35.0303 198.66 35.4413 198.883C35.4733 198.763 35.5153 198.649 35.5153 198.521L35.5158 195.833C35.0513 195.712 34.5718 195.628 34.0689 195.629C30.874 195.628 28.2829 198.219 28.2829 201.415L28.2829 207.2C28.2834 210.396 30.8735 212.986 34.0694 212.987C37.2643 212.986 39.8549 210.396 39.8554 207.201L39.8554 202.816C39.1082 203.82 38.1208 204.632 36.9621 205.142Z" fill="#EF667B"/>
<path d="M39.8557 120.672L39.8547 126.458C39.8557 129.654 37.2646 132.245 34.0692 132.244C33.5668 132.245 33.0873 132.159 32.6228 132.04L32.6228 129.351C32.6223 129.223 32.6643 129.107 32.6962 128.988C33.1068 129.213 33.5697 129.351 34.0692 129.351C35.6649 129.351 36.9619 128.052 36.9619 126.458L36.9619 120.673C36.9619 119.077 35.6644 117.779 34.0687 117.779C32.4739 117.779 31.1764 119.077 31.1759 120.672L31.1769 122.731C30.0172 123.24 29.0303 124.052 28.2831 125.056L28.2831 120.672C28.2836 117.476 30.8737 114.886 34.0696 114.886C37.2646 114.886 39.8552 117.477 39.8557 120.672ZM36.9625 133.078L36.963 135.138C36.9625 136.732 35.6644 138.03 34.0697 138.031C32.474 138.03 31.1765 136.733 31.176 135.137L31.1765 129.351C31.1765 127.755 32.4735 126.458 34.0692 126.458C34.5677 126.458 35.0306 126.597 35.4417 126.82C35.4737 126.7 35.5156 126.586 35.5156 126.458L35.5161 123.77C35.0517 123.649 34.5722 123.565 34.0693 123.566C30.8744 123.565 28.2833 126.156 28.2833 129.352L28.2833 135.137C28.2838 138.333 30.8739 140.923 34.0697 140.923C37.2646 140.923 39.8552 138.332 39.8557 135.137L39.8557 130.752C39.1086 131.757 38.1212 132.569 36.9625 133.078Z" fill="white"/>
<path d="M39.8557 219.771L39.8547 225.557C39.8557 228.752 37.2646 231.343 34.0692 231.343C33.5668 231.343 33.0873 231.258 32.6228 231.139L32.6228 228.45C32.6223 228.321 32.6643 228.205 32.6962 228.087C33.1068 228.311 33.5697 228.45 34.0692 228.45C35.6649 228.45 36.9619 227.151 36.9619 225.557L36.9619 219.772C36.9619 218.175 35.6644 216.878 34.0687 216.878C32.4739 216.878 31.1764 218.175 31.1759 219.771L31.1769 221.83C30.0172 222.339 29.0303 223.151 28.2831 224.155L28.2831 219.771C28.2836 216.575 30.8737 213.985 34.0696 213.985C37.2646 213.985 39.8552 216.576 39.8557 219.771ZM36.9625 232.177L36.963 234.236C36.9625 235.831 35.6644 237.129 34.0697 237.13C32.474 237.129 31.1765 235.831 31.176 234.236L31.1765 228.45C31.1765 226.854 32.4735 225.557 34.0692 225.557C34.5677 225.557 35.0306 225.695 35.4417 225.919C35.4737 225.799 35.5156 225.685 35.5156 225.557L35.5161 222.869C35.0517 222.748 34.5722 222.664 34.0693 222.664C30.8744 222.664 28.2833 225.255 28.2833 228.45L28.2833 234.236C28.2838 237.432 30.8739 240.022 34.0697 240.022C37.2646 240.022 39.8552 237.431 39.8557 234.236L39.8557 229.851C39.1086 230.856 38.1212 231.668 36.9625 232.177Z" fill="#EF667B"/>
<path d="M113.602 8.18219L113.601 13.9687C113.602 17.1641 111.011 19.7551 107.815 19.7542C107.313 19.7551 106.834 19.6692 106.369 19.5504L106.369 16.8614C106.369 16.733 106.41 16.6171 106.442 16.4983C106.853 16.7231 107.316 16.8614 107.815 16.8614C109.411 16.8619 110.708 15.5628 110.708 13.9686L110.708 8.18315C110.708 6.58693 109.411 5.28938 107.815 5.2899C106.22 5.28942 104.923 6.58693 104.922 8.18264L104.923 10.2413C103.763 10.7508 102.777 11.5629 102.029 12.5667L102.029 8.18267C102.03 4.98678 104.62 2.3967 107.816 2.39619C111.011 2.3967 113.601 4.98729 113.602 8.18219ZM110.709 20.5887L110.709 22.6479C110.709 24.2426 109.411 25.5407 107.816 25.5412C106.22 25.5407 104.923 24.2431 104.922 22.6474L104.923 16.8614C104.923 15.2652 106.22 13.9682 107.815 13.9687C108.314 13.9687 108.777 14.107 109.188 14.3303C109.22 14.2104 109.262 14.0965 109.262 13.9687L109.262 11.2802C108.798 11.1593 108.318 11.0754 107.815 11.0759C104.621 11.0754 102.03 13.6665 102.029 16.8619L102.029 22.6474C102.03 25.8433 104.62 28.4334 107.816 28.4339C111.011 28.4334 113.601 25.8428 113.602 22.6479L113.602 18.2628C112.855 19.2677 111.867 20.0793 110.709 20.5887Z" fill="white"/>
<path d="M113.602 133.701L113.601 139.487C113.602 142.683 111.011 145.274 107.815 145.273C107.313 145.274 106.834 145.188 106.369 145.069L106.369 142.38C106.369 142.252 106.41 142.136 106.442 142.017C106.853 142.242 107.316 142.38 107.815 142.38C109.411 142.381 110.708 141.082 110.708 139.487L110.708 133.702C110.708 132.106 109.411 130.808 107.815 130.809C106.22 130.808 104.923 132.106 104.922 133.701L104.923 135.76C103.763 136.269 102.777 137.082 102.029 138.085L102.029 133.701C102.03 130.506 104.62 127.915 107.816 127.915C111.011 127.915 113.601 130.506 113.602 133.701ZM110.709 146.107L110.709 148.167C110.709 149.761 109.411 151.059 107.816 151.06C106.22 151.059 104.923 149.762 104.922 148.166L104.923 142.38C104.923 140.784 106.22 139.487 107.815 139.487C108.314 139.487 108.777 139.626 109.188 139.849C109.22 139.729 109.262 139.615 109.262 139.487L109.262 136.799C108.798 136.678 108.318 136.594 107.815 136.595C104.621 136.594 102.03 139.185 102.029 142.381L102.029 148.166C102.03 151.362 104.62 153.952 107.816 153.953C111.011 153.952 113.601 151.362 113.602 148.167L113.602 143.782C112.855 144.786 111.867 145.598 110.709 146.107Z" fill="#007CFA"/>
<path d="M113.522 79.6361L113.521 85.4226C113.522 88.618 110.931 91.2091 107.736 91.2081C107.234 91.2091 106.754 91.1232 106.29 91.0043L106.29 88.3153C106.289 88.187 106.331 88.0711 106.363 87.9523C106.774 88.177 107.236 88.3154 107.736 88.3153C109.332 88.3158 110.629 87.0168 110.629 85.4226L110.629 79.6371C110.629 78.0409 109.331 76.7433 107.735 76.7438C106.141 76.7434 104.843 78.0409 104.843 79.6366L104.844 81.6953C103.684 82.2047 102.697 83.0168 101.95 84.0207L101.95 79.6366C101.95 76.4407 104.54 73.8507 107.736 73.8501C110.931 73.8507 113.522 76.4412 113.522 79.6361ZM110.629 92.0427L110.63 94.1019C110.629 95.6966 109.331 96.9946 107.736 96.9951C106.141 96.9946 104.843 95.6971 104.843 94.1014L104.843 88.3154C104.843 86.7192 106.14 85.4221 107.736 85.4227C108.234 85.4227 108.697 85.561 109.108 85.7842C109.14 85.6644 109.182 85.5505 109.182 85.4226L109.183 82.7341C108.718 82.6133 108.239 82.5294 107.736 82.5299C104.541 82.5294 101.95 85.1205 101.95 88.3159L101.95 94.1014C101.951 97.2973 104.541 99.8873 107.736 99.8878C110.931 99.8874 113.522 97.2968 113.522 94.1018L113.522 89.7168C112.775 90.7216 111.788 91.5332 110.629 92.0427Z" fill="#007CFA"/>
<path d="M113.522 188.082L113.521 193.868C113.522 197.064 110.931 199.655 107.736 199.654C107.234 199.655 106.754 199.569 106.29 199.45L106.29 196.761C106.289 196.633 106.331 196.517 106.363 196.398C106.774 196.623 107.236 196.761 107.736 196.761C109.332 196.762 110.629 195.462 110.629 193.868L110.629 188.083C110.629 186.487 109.331 185.189 107.735 185.19C106.141 185.189 104.843 186.487 104.843 188.082L104.844 190.141C103.684 190.65 102.697 191.463 101.95 192.466L101.95 188.082C101.95 184.886 104.54 182.296 107.736 182.296C110.931 182.296 113.522 184.887 113.522 188.082ZM110.629 200.488L110.63 202.548C110.629 204.142 109.331 205.44 107.736 205.441C106.141 205.44 104.843 204.143 104.843 202.547L104.843 196.761C104.843 195.165 106.14 193.868 107.736 193.868C108.234 193.868 108.697 194.007 109.108 194.23C109.14 194.11 109.182 193.996 109.182 193.868L109.183 191.18C108.718 191.059 108.239 190.975 107.736 190.976C104.541 190.975 101.95 193.566 101.95 196.762L101.95 202.547C101.951 205.743 104.541 208.333 107.736 208.334C110.931 208.333 113.522 205.742 113.522 202.548L113.522 198.162C112.775 199.167 111.788 199.979 110.629 200.488Z" fill="#007CFA"/>
<path d="M113.602 35.2177L113.601 41.0042C113.602 44.1996 111.011 46.7907 107.816 46.7897C107.313 46.7907 106.834 46.7048 106.369 46.5859L106.369 43.8969C106.369 43.7686 106.411 43.6527 106.443 43.5339C106.853 43.7586 107.316 43.897 107.816 43.8969C109.411 43.8974 110.708 42.5984 110.708 41.0042L110.708 35.2187C110.708 33.6225 109.411 32.3249 107.815 32.3254C106.22 32.325 104.923 33.6225 104.922 35.2182L104.923 37.2769C103.764 37.7863 102.777 38.5984 102.03 39.6023L102.03 35.2182C102.03 32.0223 104.62 29.4323 107.816 29.4317C111.011 29.4323 113.602 32.0228 113.602 35.2177ZM110.709 47.6243L110.709 49.6835C110.709 51.2782 109.411 52.5763 107.816 52.5767C106.22 52.5762 104.923 51.2787 104.922 49.683L104.923 43.897C104.923 42.3008 106.22 41.0037 107.816 41.0043C108.314 41.0043 108.777 41.1426 109.188 41.3658C109.22 41.246 109.262 41.1321 109.262 41.0042L109.263 38.3157C108.798 38.1949 108.319 38.111 107.816 38.1115C104.621 38.111 102.03 40.7021 102.03 43.8975L102.03 49.683C102.03 52.8789 104.62 55.4689 107.816 55.4694C111.011 55.469 113.602 52.8784 113.602 49.6834L113.602 45.2984C112.855 46.3033 111.868 47.1148 110.709 47.6243Z" fill="white"/>
<path d="M113.602 160.736L113.601 166.523C113.602 169.718 111.011 172.309 107.816 172.308C107.313 172.309 106.834 172.224 106.369 172.105L106.369 169.416C106.369 169.287 106.411 169.171 106.443 169.053C106.853 169.277 107.316 169.416 107.816 169.416C109.411 169.416 110.708 168.117 110.708 166.523L110.708 160.737C110.708 159.141 109.411 157.844 107.815 157.844C106.22 157.844 104.923 159.141 104.922 160.737L104.923 162.796C103.764 163.305 102.777 164.117 102.03 165.121L102.03 160.737C102.03 157.541 104.62 154.951 107.816 154.95C111.011 154.951 113.602 157.542 113.602 160.736ZM110.709 173.143L110.709 175.202C110.709 176.797 109.411 178.095 107.816 178.095C106.22 178.095 104.923 176.797 104.922 175.202L104.923 169.416C104.923 167.82 106.22 166.522 107.816 166.523C108.314 166.523 108.777 166.661 109.188 166.885C109.22 166.765 109.262 166.651 109.262 166.523L109.263 163.834C108.798 163.714 108.319 163.63 107.816 163.63C104.621 163.63 102.03 166.221 102.03 169.416L102.03 175.202C102.03 178.398 104.62 180.988 107.816 180.988C111.011 180.988 113.602 178.397 113.602 175.202L113.602 170.817C112.855 171.822 111.868 172.634 110.709 173.143Z" fill="#007CFA"/>
<path d="M113.523 106.672L113.522 112.458C113.523 115.654 110.932 118.245 107.736 118.244C107.234 118.245 106.755 118.159 106.29 118.04L106.29 115.351C106.29 115.223 106.331 115.107 106.363 114.988C106.774 115.213 107.237 115.351 107.736 115.351C109.332 115.351 110.629 114.052 110.629 112.458L110.629 106.673C110.629 105.076 109.332 103.779 107.736 103.779C106.141 103.779 104.844 105.076 104.843 106.672L104.844 108.731C103.684 109.24 102.698 110.052 101.95 111.056L101.95 106.672C101.951 103.476 104.541 100.886 107.737 100.886C110.932 100.886 113.522 103.477 113.523 106.672ZM110.63 119.078L110.63 121.137C110.63 122.732 109.332 124.03 107.737 124.031C106.141 124.03 104.844 122.733 104.843 121.137L104.844 115.351C104.844 113.755 106.141 112.458 107.736 112.458C108.235 112.458 108.698 112.597 109.109 112.82C109.141 112.7 109.183 112.586 109.183 112.458L109.183 109.77C108.719 109.649 108.239 109.565 107.737 109.565C104.542 109.565 101.951 112.156 101.951 115.351L101.951 121.137C101.951 124.333 104.541 126.923 107.737 126.923C110.932 126.923 113.522 124.332 113.523 121.137L113.523 116.752C112.776 117.757 111.788 118.569 110.63 119.078Z" fill="#007CFA"/>
<path d="M113.523 215.117L113.522 220.904C113.523 224.099 110.932 226.69 107.736 226.689C107.234 226.69 106.755 226.604 106.29 226.486L106.29 223.797C106.29 223.668 106.331 223.552 106.363 223.433C106.774 223.658 107.237 223.797 107.736 223.797C109.332 223.797 110.629 222.498 110.629 220.904L110.629 215.118C110.629 213.522 109.332 212.225 107.736 212.225C106.141 212.225 104.844 213.522 104.843 215.118L104.844 217.177C103.684 217.686 102.698 218.498 101.95 219.502L101.95 215.118C101.951 211.922 104.541 209.332 107.737 209.331C110.932 209.332 113.522 211.922 113.523 215.117ZM110.63 227.524L110.63 229.583C110.63 231.178 109.332 232.476 107.737 232.476C106.141 232.476 104.844 231.178 104.843 229.583L104.844 223.797C104.844 222.2 106.141 220.903 107.736 220.904C108.235 220.904 108.698 221.042 109.109 221.265C109.141 221.146 109.183 221.032 109.183 220.904L109.183 218.215C108.719 218.095 108.239 218.011 107.737 218.011C104.542 218.011 101.951 220.602 101.951 223.797L101.951 229.583C101.951 232.778 104.541 235.369 107.737 235.369C110.932 235.369 113.522 232.778 113.523 229.583L113.523 225.198C112.776 226.203 111.788 227.014 110.63 227.524Z" fill="#007CFA"/>
<path d="M76.8468 202.309L76.8458 208.096C76.8468 211.291 74.2557 213.882 71.0603 213.881C70.5578 213.882 70.0784 213.796 69.6139 213.678L69.6139 210.989C69.6134 210.86 69.6553 210.744 69.6873 210.625C70.0979 210.85 70.5608 210.989 71.0603 210.989C72.656 210.989 73.953 209.69 73.953 208.096L73.953 202.31C73.953 200.714 72.6555 199.417 71.0597 199.417C69.465 199.417 68.1675 200.714 68.167 202.31L68.168 204.369C67.0083 204.878 66.0214 205.69 65.2742 206.694L65.2742 202.31C65.2747 199.114 67.8648 196.524 71.0607 196.523C74.2557 196.524 76.8463 199.114 76.8468 202.309ZM73.9535 214.716L73.9541 216.775C73.9536 218.37 72.6555 219.668 71.0608 219.668C69.4651 219.668 68.1675 218.37 68.1671 216.775L68.1676 210.989C68.1676 209.392 69.4646 208.095 71.0603 208.096C71.5588 208.096 72.0217 208.234 72.4328 208.457C72.4648 208.338 72.5067 208.224 72.5067 208.096L72.5072 205.407C72.0428 205.286 71.5633 205.203 71.0604 205.203C67.8655 205.203 65.2744 207.794 65.2744 210.989L65.2744 216.775C65.2749 219.97 67.8649 222.561 71.0608 222.561C74.2557 222.561 76.8463 219.97 76.8468 216.775L76.8468 212.39C76.0996 213.395 75.1122 214.206 73.9535 214.716Z" fill="white"/>
<path d="M76.9264 174.964L76.9254 180.751C76.9264 183.946 74.3353 186.537 71.1399 186.536C70.6374 186.537 70.158 186.451 69.6935 186.332L69.6935 183.643C69.693 183.515 69.7349 183.399 69.7669 183.28C70.1774 183.505 70.6404 183.643 71.1398 183.643C72.7356 183.644 74.0326 182.345 74.0326 180.75L74.0326 174.965C74.0326 173.369 72.735 172.071 71.1393 172.072C69.5446 172.071 68.2471 173.369 68.2466 174.964L68.2476 177.023C67.0879 177.533 66.101 178.345 65.3538 179.349L65.3538 174.965C65.3543 171.769 67.9444 169.179 71.1403 169.178C74.3353 169.179 76.9259 171.769 76.9264 174.964ZM74.0331 187.371L74.0336 189.43C74.0332 191.024 72.7351 192.323 71.1404 192.323C69.5447 192.323 68.2471 191.025 68.2467 189.429L68.2472 183.643C68.2472 182.047 69.5442 180.75 71.1399 180.751C71.6384 180.751 72.1013 180.889 72.5124 181.112C72.5443 180.992 72.5863 180.878 72.5863 180.751L72.5868 178.062C72.1224 177.941 71.6429 177.857 71.1399 177.858C67.945 177.857 65.354 180.448 65.3539 183.644L65.3539 189.429C65.3545 192.625 67.9445 195.215 71.1404 195.216C74.3353 195.215 76.9259 192.625 76.9264 189.43L76.9264 185.045C76.1792 186.05 75.1918 186.861 74.0331 187.371Z" fill="white"/>
<path d="M76.8471 229.345L76.8461 235.131C76.8471 238.327 74.2561 240.918 71.0607 240.917C70.5582 240.918 70.0788 240.832 69.6143 240.713L69.6143 238.024C69.6137 237.896 69.6557 237.78 69.6877 237.661C70.0982 237.886 70.5612 238.024 71.0606 238.024C72.6563 238.025 73.9534 236.726 73.9534 235.131L73.9534 229.346C73.9534 227.75 72.6558 226.452 71.0601 226.453C69.4654 226.452 68.1679 227.75 68.1674 229.345L68.1684 231.404C67.0087 231.914 66.0218 232.726 65.2746 233.729L65.2746 229.345C65.2751 226.15 67.8652 223.559 71.0611 223.559C74.2561 223.559 76.8467 226.15 76.8471 229.345ZM73.9539 241.751L73.9544 243.811C73.9539 245.405 72.6559 246.703 71.0612 246.704C69.4655 246.703 68.1679 245.406 68.1674 243.81L68.1679 238.024C68.1679 236.428 69.465 235.131 71.0607 235.131C71.5591 235.131 72.0221 235.27 72.4332 235.493C72.4651 235.373 72.5071 235.259 72.5071 235.131L72.5076 232.443C72.0431 232.322 71.5636 232.238 71.0607 232.239C67.8658 232.238 65.2748 234.829 65.2747 238.025L65.2747 243.81C65.2752 247.006 67.8653 249.596 71.0612 249.597C74.2561 249.596 76.8467 247.006 76.8472 243.811L76.8472 239.426C76.1 240.43 75.1126 241.242 73.9539 241.751Z" fill="white"/>
<path d="M150.514 235.352L150.513 241.139C150.514 244.334 147.923 246.925 144.728 246.924C144.225 246.925 143.746 246.839 143.281 246.72L143.281 244.031C143.281 243.903 143.323 243.787 143.355 243.668C143.765 243.893 144.228 244.031 144.728 244.031C146.323 244.032 147.62 242.733 147.62 241.139L147.62 235.353C147.62 233.757 146.323 232.459 144.727 232.46C143.132 232.459 141.835 233.757 141.834 235.353L141.835 237.411C140.676 237.921 139.689 238.733 138.942 239.737L138.942 235.353C138.942 232.157 141.532 229.567 144.728 229.566C147.923 229.567 150.514 232.157 150.514 235.352ZM147.621 247.759L147.621 249.818C147.621 251.413 146.323 252.711 144.728 252.711C143.132 252.711 141.835 251.413 141.834 249.817L141.835 244.031C141.835 242.435 143.132 241.138 144.728 241.139C145.226 241.139 145.689 241.277 146.1 241.5C146.132 241.38 146.174 241.266 146.174 241.139L146.175 238.45C145.71 238.329 145.231 238.245 144.728 238.246C141.533 238.245 138.942 240.836 138.942 244.032L138.942 249.817C138.942 253.013 141.532 255.603 144.728 255.604C147.923 255.603 150.514 253.013 150.514 249.818L150.514 245.433C149.767 246.438 148.78 247.249 147.621 247.759Z" fill="white"/>
</svg>
